<?xml version="1.0" encoding="utf-8" standalone="no"?>
<!DOCTYPE svg PUBLIC "-//W3C//DTD SVG 1.1//EN"
  "http://www.w3.org/Graphics/SVG/1.1/DTD/svg11.dtd">
<svg xmlns:xlink="http://www.w3.org/1999/xlink" width="460.8pt" height="345.6pt" viewBox="0 0 460.8 345.6" xmlns="http://www.w3.org/2000/svg" version="1.1">
 <metadata>
  <rdf:RDF xmlns:dc="http://purl.org/dc/elements/1.1/" xmlns:cc="http://creativecommons.org/ns#" xmlns:rdf="http://www.w3.org/1999/02/22-rdf-syntax-ns#">
   <cc:Work>
    <dc:type rdf:resource="http://purl.org/dc/dcmitype/StillImage"/>
    <dc:date>2023-01-31T20:50:00.694294</dc:date>
    <dc:format>image/svg+xml</dc:format>
    <dc:creator>
     <cc:Agent>
      <dc:title>Matplotlib v3.6.2, https://matplotlib.org/</dc:title>
     </cc:Agent>
    </dc:creator>
   </cc:Work>
  </rdf:RDF>
 </metadata>
 <defs>
  <style type="text/css">*{stroke-linejoin: round; stroke-linecap: butt}</style>
 </defs>
 <g id="figure_1">
  <g id="patch_1">
   <path d="M 0 345.6 
L 460.8 345.6 
L 460.8 0 
L 0 0 
z
" style="fill: #ffffff"/>
  </g>
  <g id="axes_1">
   <g id="patch_2">
    <path d="M 57.6 298.944 
L 360.8064 298.944 
L 360.8064 6.912 
L 57.6 6.912 
z
" style="fill: #ffffff"/>
   </g>
   <g id="line2d_1">
    <path d="M 71.331702 298.944 
L 71.331702 240.5376 
L 71.779618 240.5376 
L 71.779618 239.392376 
L 71.999638 239.392376 
L 71.999638 238.247153 
L 72.432107 238.247153 
L 72.432107 237.101929 
L 72.644669 237.101929 
L 72.644669 235.956706 
L 73.268314 235.956706 
L 73.268314 234.811482 
L 74.456807 234.811482 
L 74.456807 233.666259 
L 74.836851 233.666259 
L 74.836851 232.521035 
L 75.574654 232.521035 
L 75.574654 231.375812 
L 76.629783 231.375812 
L 76.629783 230.230588 
L 76.800025 230.230588 
L 76.800025 229.085365 
L 77.628862 229.085365 
L 77.628862 227.940141 
L 77.790335 227.940141 
L 77.790335 225.649694 
L 77.950435 225.649694 
L 77.950435 224.504471 
L 78.109183 224.504471 
L 78.109183 223.359247 
L 78.266603 223.359247 
L 78.266603 218.778353 
L 78.422716 218.778353 
L 78.422716 182.1312 
L 112.283321 182.1312 
L 112.283321 180.985976 
L 113.789049 180.985976 
L 113.883699 168.388518 
L 113.907287 168.388518 
L 114.001345 132.886588 
L 114.024786 132.886588 
L 114.048198 128.305694 
L 114.211271 128.305694 
L 114.211271 127.160471 
L 114.624224 127.160471 
L 114.624224 126.015247 
L 116.542574 126.015247 
L 116.542574 124.870024 
L 118.835511 124.870024 
L 118.835511 123.7248 
L 121.39274 123.7248 
L 121.39274 122.579576 
L 149.76753 122.579576 
L 149.76753 121.434353 
L 152.870956 121.434353 
L 152.870956 120.289129 
L 155.13016 120.289129 
L 155.13016 119.143906 
L 157.859835 119.143906 
L 157.859835 117.998682 
L 159.657945 117.998682 
L 159.657945 116.853459 
L 162.790931 116.853459 
L 162.790931 115.708235 
L 163.983181 115.708235 
L 163.983181 114.563012 
L 167.331571 114.563012 
L 167.331571 113.417788 
L 169.284344 113.417788 
L 169.284344 112.272565 
L 169.743035 112.272565 
L 169.849356 90.513318 
L 169.854175 90.513318 
L 169.956278 33.252141 
L 169.979025 33.252141 
L 170.012498 17.219012 
L 207.531926 17.219012 
L 207.532413 14.928565 
L 224.312412 14.928565 
L 224.312478 11.492894 
L 238.9756 11.492894 
L 238.977403 6.912 
L 360.8064 6.912 
L 360.8064 6.912 
" style="fill: none; stroke: #f5deb3; stroke-width: 4; stroke-linecap: square"/>
   </g>
   <g id="line2d_2">
    <defs>
     <path id="m742d39900f" d="M 0 7.778175 
L 7.778175 0 
L 0 -7.778175 
L -7.778175 0 
z
" style="stroke: #f5deb3; stroke-width: 1.5; stroke-linejoin: miter"/>
    </defs>
    <g>
     <use xlink:href="#m742d39900f" x="112.283321" y="182.1312" style="fill: #f5deb3; stroke: #f5deb3; stroke-width: 1.5; stroke-linejoin: miter"/>
     <use xlink:href="#m742d39900f" x="169.901091" y="52.720941" style="fill: #f5deb3; stroke: #f5deb3; stroke-width: 1.5; stroke-linejoin: miter"/>
     <use xlink:href="#m742d39900f" x="238.977403" y="8.057224" style="fill: #f5deb3; stroke: #f5deb3; stroke-width: 1.5; stroke-linejoin: miter"/>
     <use xlink:href="#m742d39900f" x="238.977403" y="6.912" style="fill: #f5deb3; stroke: #f5deb3; stroke-width: 1.5; stroke-linejoin: miter"/>
     <use xlink:href="#m742d39900f" x="360.8064" y="6.912" style="fill: #f5deb3; stroke: #f5deb3; stroke-width: 1.5; stroke-linejoin: miter"/>
    </g>
   </g>
   <g id="line2d_3">
    <path style="fill: none; stroke: #f5deb3; stroke-width: 4; stroke-linecap: square"/>
    <g/>
   </g>
   <g id="line2d_4">
    <path d="M 360.8064 6.912 
L 380.514816 12.75264 
" style="fill: none; stroke: #f5deb3; stroke-width: 4; stroke-linecap: square"/>
    <g>
     <use xlink:href="#m742d39900f" x="360.8064" y="6.912" style="fill: #f5deb3; stroke: #f5deb3; stroke-width: 1.5; stroke-linejoin: miter"/>
     <use xlink:href="#m742d39900f" x="380.514816" y="12.75264" style="fill: #f5deb3; stroke: #f5deb3; stroke-width: 1.5; stroke-linejoin: miter"/>
    </g>
   </g>
   <g id="matplotlib.axis_1">
    <g id="xtick_1">
     <g id="line2d_5">
      <path d="M 57.6 298.944 
L 57.6 6.912 
" clip-path="url(#p0abbe7dbc1)" style="fill: none; stroke: #b0b0b0; stroke-width: 0.8; stroke-linecap: square"/>
     </g>
     <g id="line2d_6">
      <defs>
       <path id="m6b34260bc2" d="M 0 0 
L 0 3.5 
" style="stroke: #000000; stroke-width: 0.8"/>
      </defs>
      <g>
       <use xlink:href="#m6b34260bc2" x="57.6" y="298.944" style="stroke: #000000; stroke-width: 0.8"/>
      </g>
     </g>
     <g id="text_1">
      <!-- 0 -->
      <g transform="translate(52.191875 318.861344) scale(0.17 -0.17)">
       <defs>
        <path id="DejaVuSans-30" d="M 2034 4250 
Q 1547 4250 1301 3770 
Q 1056 3291 1056 2328 
Q 1056 1369 1301 889 
Q 1547 409 2034 409 
Q 2525 409 2770 889 
Q 3016 1369 3016 2328 
Q 3016 3291 2770 3770 
Q 2525 4250 2034 4250 
z
M 2034 4750 
Q 2819 4750 3233 4129 
Q 3647 3509 3647 2328 
Q 3647 1150 3233 529 
Q 2819 -91 2034 -91 
Q 1250 -91 836 529 
Q 422 1150 422 2328 
Q 422 3509 836 4129 
Q 1250 4750 2034 4750 
z
" transform="scale(0.015625)"/>
       </defs>
       <use xlink:href="#DejaVuSans-30"/>
      </g>
     </g>
    </g>
    <g id="xtick_2">
     <g id="line2d_7">
      <path d="M 144.2304 298.944 
L 144.2304 6.912 
" clip-path="url(#p0abbe7dbc1)" style="fill: none; stroke: #b0b0b0; stroke-width: 0.8; stroke-linecap: square"/>
     </g>
     <g id="line2d_8">
      <g>
       <use xlink:href="#m6b34260bc2" x="144.2304" y="298.944" style="stroke: #000000; stroke-width: 0.8"/>
      </g>
     </g>
     <g id="text_2">
      <!-- 2 -->
      <g transform="translate(138.822275 318.861344) scale(0.17 -0.17)">
       <defs>
        <path id="DejaVuSans-32" d="M 1228 531 
L 3431 531 
L 3431 0 
L 469 0 
L 469 531 
Q 828 903 1448 1529 
Q 2069 2156 2228 2338 
Q 2531 2678 2651 2914 
Q 2772 3150 2772 3378 
Q 2772 3750 2511 3984 
Q 2250 4219 1831 4219 
Q 1534 4219 1204 4116 
Q 875 4013 500 3803 
L 500 4441 
Q 881 4594 1212 4672 
Q 1544 4750 1819 4750 
Q 2544 4750 2975 4387 
Q 3406 4025 3406 3419 
Q 3406 3131 3298 2873 
Q 3191 2616 2906 2266 
Q 2828 2175 2409 1742 
Q 1991 1309 1228 531 
z
" transform="scale(0.015625)"/>
       </defs>
       <use xlink:href="#DejaVuSans-32"/>
      </g>
     </g>
    </g>
    <g id="xtick_3">
     <g id="line2d_9">
      <path d="M 230.8608 298.944 
L 230.8608 6.912 
" clip-path="url(#p0abbe7dbc1)" style="fill: none; stroke: #b0b0b0; stroke-width: 0.8; stroke-linecap: square"/>
     </g>
     <g id="line2d_10">
      <g>
       <use xlink:href="#m6b34260bc2" x="230.8608" y="298.944" style="stroke: #000000; stroke-width: 0.8"/>
      </g>
     </g>
     <g id="text_3">
      <!-- 4 -->
      <g transform="translate(225.452675 318.861344) scale(0.17 -0.17)">
       <defs>
        <path id="DejaVuSans-34" d="M 2419 4116 
L 825 1625 
L 2419 1625 
L 2419 4116 
z
M 2253 4666 
L 3047 4666 
L 3047 1625 
L 3713 1625 
L 3713 1100 
L 3047 1100 
L 3047 0 
L 2419 0 
L 2419 1100 
L 313 1100 
L 313 1709 
L 2253 4666 
z
" transform="scale(0.015625)"/>
       </defs>
       <use xlink:href="#DejaVuSans-34"/>
      </g>
     </g>
    </g>
    <g id="xtick_4">
     <g id="line2d_11">
      <path d="M 317.4912 298.944 
L 317.4912 6.912 
" clip-path="url(#p0abbe7dbc1)" style="fill: none; stroke: #b0b0b0; stroke-width: 0.8; stroke-linecap: square"/>
     </g>
     <g id="line2d_12">
      <g>
       <use xlink:href="#m6b34260bc2" x="317.4912" y="298.944" style="stroke: #000000; stroke-width: 0.8"/>
      </g>
     </g>
     <g id="text_4">
      <!-- 6 -->
      <g transform="translate(312.083075 318.861344) scale(0.17 -0.17)">
       <defs>
        <path id="DejaVuSans-36" d="M 2113 2584 
Q 1688 2584 1439 2293 
Q 1191 2003 1191 1497 
Q 1191 994 1439 701 
Q 1688 409 2113 409 
Q 2538 409 2786 701 
Q 3034 994 3034 1497 
Q 3034 2003 2786 2293 
Q 2538 2584 2113 2584 
z
M 3366 4563 
L 3366 3988 
Q 3128 4100 2886 4159 
Q 2644 4219 2406 4219 
Q 1781 4219 1451 3797 
Q 1122 3375 1075 2522 
Q 1259 2794 1537 2939 
Q 1816 3084 2150 3084 
Q 2853 3084 3261 2657 
Q 3669 2231 3669 1497 
Q 3669 778 3244 343 
Q 2819 -91 2113 -91 
Q 1303 -91 875 529 
Q 447 1150 447 2328 
Q 447 3434 972 4092 
Q 1497 4750 2381 4750 
Q 2619 4750 2861 4703 
Q 3103 4656 3366 4563 
z
" transform="scale(0.015625)"/>
       </defs>
       <use xlink:href="#DejaVuSans-36"/>
      </g>
     </g>
    </g>
    <g id="xtick_5">
     <g id="line2d_13">
      <path d="M 100.9152 298.944 
L 100.9152 6.912 
" clip-path="url(#p0abbe7dbc1)" style="fill: none; stroke: #b0b0b0; stroke-width: 0.8; stroke-linecap: square"/>
     </g>
     <g id="line2d_14">
      <defs>
       <path id="m6ff1aa4dd1" d="M 0 0 
L 0 2 
" style="stroke: #000000; stroke-width: 0.6"/>
      </defs>
      <g>
       <use xlink:href="#m6ff1aa4dd1" x="100.9152" y="298.944" style="stroke: #000000; stroke-width: 0.6"/>
      </g>
     </g>
    </g>
    <g id="xtick_6">
     <g id="line2d_15">
      <path d="M 187.5456 298.944 
L 187.5456 6.912 
" clip-path="url(#p0abbe7dbc1)" style="fill: none; stroke: #b0b0b0; stroke-width: 0.8; stroke-linecap: square"/>
     </g>
     <g id="line2d_16">
      <g>
       <use xlink:href="#m6ff1aa4dd1" x="187.5456" y="298.944" style="stroke: #000000; stroke-width: 0.6"/>
      </g>
     </g>
    </g>
    <g id="xtick_7">
     <g id="line2d_17">
      <path d="M 274.176 298.944 
L 274.176 6.912 
" clip-path="url(#p0abbe7dbc1)" style="fill: none; stroke: #b0b0b0; stroke-width: 0.8; stroke-linecap: square"/>
     </g>
     <g id="line2d_18">
      <g>
       <use xlink:href="#m6ff1aa4dd1" x="274.176" y="298.944" style="stroke: #000000; stroke-width: 0.6"/>
      </g>
     </g>
    </g>
    <g id="xtick_8">
     <g id="line2d_19">
      <path d="M 360.8064 298.944 
L 360.8064 6.912 
" clip-path="url(#p0abbe7dbc1)" style="fill: none; stroke: #b0b0b0; stroke-width: 0.8; stroke-linecap: square"/>
     </g>
     <g id="line2d_20">
      <g>
       <use xlink:href="#m6ff1aa4dd1" x="360.8064" y="298.944" style="stroke: #000000; stroke-width: 0.6"/>
      </g>
     </g>
    </g>
    <g id="text_5">
     <!-- log10(# f-evals / dimension) -->
     <g transform="translate(88.823278 339.314156) scale(0.17 -0.17)">
      <defs>
       <path id="DejaVuSans-6c" d="M 603 4863 
L 1178 4863 
L 1178 0 
L 603 0 
L 603 4863 
z
" transform="scale(0.015625)"/>
       <path id="DejaVuSans-6f" d="M 1959 3097 
Q 1497 3097 1228 2736 
Q 959 2375 959 1747 
Q 959 1119 1226 758 
Q 1494 397 1959 397 
Q 2419 397 2687 759 
Q 2956 1122 2956 1747 
Q 2956 2369 2687 2733 
Q 2419 3097 1959 3097 
z
M 1959 3584 
Q 2709 3584 3137 3096 
Q 3566 2609 3566 1747 
Q 3566 888 3137 398 
Q 2709 -91 1959 -91 
Q 1206 -91 779 398 
Q 353 888 353 1747 
Q 353 2609 779 3096 
Q 1206 3584 1959 3584 
z
" transform="scale(0.015625)"/>
       <path id="DejaVuSans-67" d="M 2906 1791 
Q 2906 2416 2648 2759 
Q 2391 3103 1925 3103 
Q 1463 3103 1205 2759 
Q 947 2416 947 1791 
Q 947 1169 1205 825 
Q 1463 481 1925 481 
Q 2391 481 2648 825 
Q 2906 1169 2906 1791 
z
M 3481 434 
Q 3481 -459 3084 -895 
Q 2688 -1331 1869 -1331 
Q 1566 -1331 1297 -1286 
Q 1028 -1241 775 -1147 
L 775 -588 
Q 1028 -725 1275 -790 
Q 1522 -856 1778 -856 
Q 2344 -856 2625 -561 
Q 2906 -266 2906 331 
L 2906 616 
Q 2728 306 2450 153 
Q 2172 0 1784 0 
Q 1141 0 747 490 
Q 353 981 353 1791 
Q 353 2603 747 3093 
Q 1141 3584 1784 3584 
Q 2172 3584 2450 3431 
Q 2728 3278 2906 2969 
L 2906 3500 
L 3481 3500 
L 3481 434 
z
" transform="scale(0.015625)"/>
       <path id="DejaVuSans-31" d="M 794 531 
L 1825 531 
L 1825 4091 
L 703 3866 
L 703 4441 
L 1819 4666 
L 2450 4666 
L 2450 531 
L 3481 531 
L 3481 0 
L 794 0 
L 794 531 
z
" transform="scale(0.015625)"/>
       <path id="DejaVuSans-28" d="M 1984 4856 
Q 1566 4138 1362 3434 
Q 1159 2731 1159 2009 
Q 1159 1288 1364 580 
Q 1569 -128 1984 -844 
L 1484 -844 
Q 1016 -109 783 600 
Q 550 1309 550 2009 
Q 550 2706 781 3412 
Q 1013 4119 1484 4856 
L 1984 4856 
z
" transform="scale(0.015625)"/>
       <path id="DejaVuSans-23" d="M 3272 2816 
L 2363 2816 
L 2100 1772 
L 3016 1772 
L 3272 2816 
z
M 2803 4594 
L 2478 3297 
L 3391 3297 
L 3719 4594 
L 4219 4594 
L 3897 3297 
L 4872 3297 
L 4872 2816 
L 3775 2816 
L 3519 1772 
L 4513 1772 
L 4513 1294 
L 3397 1294 
L 3072 0 
L 2572 0 
L 2894 1294 
L 1978 1294 
L 1656 0 
L 1153 0 
L 1478 1294 
L 494 1294 
L 494 1772 
L 1594 1772 
L 1856 2816 
L 850 2816 
L 850 3297 
L 1978 3297 
L 2297 4594 
L 2803 4594 
z
" transform="scale(0.015625)"/>
       <path id="DejaVuSans-20" transform="scale(0.015625)"/>
       <path id="DejaVuSans-66" d="M 2375 4863 
L 2375 4384 
L 1825 4384 
Q 1516 4384 1395 4259 
Q 1275 4134 1275 3809 
L 1275 3500 
L 2222 3500 
L 2222 3053 
L 1275 3053 
L 1275 0 
L 697 0 
L 697 3053 
L 147 3053 
L 147 3500 
L 697 3500 
L 697 3744 
Q 697 4328 969 4595 
Q 1241 4863 1831 4863 
L 2375 4863 
z
" transform="scale(0.015625)"/>
       <path id="DejaVuSans-2d" d="M 313 2009 
L 1997 2009 
L 1997 1497 
L 313 1497 
L 313 2009 
z
" transform="scale(0.015625)"/>
       <path id="DejaVuSans-65" d="M 3597 1894 
L 3597 1613 
L 953 1613 
Q 991 1019 1311 708 
Q 1631 397 2203 397 
Q 2534 397 2845 478 
Q 3156 559 3463 722 
L 3463 178 
Q 3153 47 2828 -22 
Q 2503 -91 2169 -91 
Q 1331 -91 842 396 
Q 353 884 353 1716 
Q 353 2575 817 3079 
Q 1281 3584 2069 3584 
Q 2775 3584 3186 3129 
Q 3597 2675 3597 1894 
z
M 3022 2063 
Q 3016 2534 2758 2815 
Q 2500 3097 2075 3097 
Q 1594 3097 1305 2825 
Q 1016 2553 972 2059 
L 3022 2063 
z
" transform="scale(0.015625)"/>
       <path id="DejaVuSans-76" d="M 191 3500 
L 800 3500 
L 1894 563 
L 2988 3500 
L 3597 3500 
L 2284 0 
L 1503 0 
L 191 3500 
z
" transform="scale(0.015625)"/>
       <path id="DejaVuSans-61" d="M 2194 1759 
Q 1497 1759 1228 1600 
Q 959 1441 959 1056 
Q 959 750 1161 570 
Q 1363 391 1709 391 
Q 2188 391 2477 730 
Q 2766 1069 2766 1631 
L 2766 1759 
L 2194 1759 
z
M 3341 1997 
L 3341 0 
L 2766 0 
L 2766 531 
Q 2569 213 2275 61 
Q 1981 -91 1556 -91 
Q 1019 -91 701 211 
Q 384 513 384 1019 
Q 384 1609 779 1909 
Q 1175 2209 1959 2209 
L 2766 2209 
L 2766 2266 
Q 2766 2663 2505 2880 
Q 2244 3097 1772 3097 
Q 1472 3097 1187 3025 
Q 903 2953 641 2809 
L 641 3341 
Q 956 3463 1253 3523 
Q 1550 3584 1831 3584 
Q 2591 3584 2966 3190 
Q 3341 2797 3341 1997 
z
" transform="scale(0.015625)"/>
       <path id="DejaVuSans-73" d="M 2834 3397 
L 2834 2853 
Q 2591 2978 2328 3040 
Q 2066 3103 1784 3103 
Q 1356 3103 1142 2972 
Q 928 2841 928 2578 
Q 928 2378 1081 2264 
Q 1234 2150 1697 2047 
L 1894 2003 
Q 2506 1872 2764 1633 
Q 3022 1394 3022 966 
Q 3022 478 2636 193 
Q 2250 -91 1575 -91 
Q 1294 -91 989 -36 
Q 684 19 347 128 
L 347 722 
Q 666 556 975 473 
Q 1284 391 1588 391 
Q 1994 391 2212 530 
Q 2431 669 2431 922 
Q 2431 1156 2273 1281 
Q 2116 1406 1581 1522 
L 1381 1569 
Q 847 1681 609 1914 
Q 372 2147 372 2553 
Q 372 3047 722 3315 
Q 1072 3584 1716 3584 
Q 2034 3584 2315 3537 
Q 2597 3491 2834 3397 
z
" transform="scale(0.015625)"/>
       <path id="DejaVuSans-2f" d="M 1625 4666 
L 2156 4666 
L 531 -594 
L 0 -594 
L 1625 4666 
z
" transform="scale(0.015625)"/>
       <path id="DejaVuSans-64" d="M 2906 2969 
L 2906 4863 
L 3481 4863 
L 3481 0 
L 2906 0 
L 2906 525 
Q 2725 213 2448 61 
Q 2172 -91 1784 -91 
Q 1150 -91 751 415 
Q 353 922 353 1747 
Q 353 2572 751 3078 
Q 1150 3584 1784 3584 
Q 2172 3584 2448 3432 
Q 2725 3281 2906 2969 
z
M 947 1747 
Q 947 1113 1208 752 
Q 1469 391 1925 391 
Q 2381 391 2643 752 
Q 2906 1113 2906 1747 
Q 2906 2381 2643 2742 
Q 2381 3103 1925 3103 
Q 1469 3103 1208 2742 
Q 947 2381 947 1747 
z
" transform="scale(0.015625)"/>
       <path id="DejaVuSans-69" d="M 603 3500 
L 1178 3500 
L 1178 0 
L 603 0 
L 603 3500 
z
M 603 4863 
L 1178 4863 
L 1178 4134 
L 603 4134 
L 603 4863 
z
" transform="scale(0.015625)"/>
       <path id="DejaVuSans-6d" d="M 3328 2828 
Q 3544 3216 3844 3400 
Q 4144 3584 4550 3584 
Q 5097 3584 5394 3201 
Q 5691 2819 5691 2113 
L 5691 0 
L 5113 0 
L 5113 2094 
Q 5113 2597 4934 2840 
Q 4756 3084 4391 3084 
Q 3944 3084 3684 2787 
Q 3425 2491 3425 1978 
L 3425 0 
L 2847 0 
L 2847 2094 
Q 2847 2600 2669 2842 
Q 2491 3084 2119 3084 
Q 1678 3084 1418 2786 
Q 1159 2488 1159 1978 
L 1159 0 
L 581 0 
L 581 3500 
L 1159 3500 
L 1159 2956 
Q 1356 3278 1631 3431 
Q 1906 3584 2284 3584 
Q 2666 3584 2933 3390 
Q 3200 3197 3328 2828 
z
" transform="scale(0.015625)"/>
       <path id="DejaVuSans-6e" d="M 3513 2113 
L 3513 0 
L 2938 0 
L 2938 2094 
Q 2938 2591 2744 2837 
Q 2550 3084 2163 3084 
Q 1697 3084 1428 2787 
Q 1159 2491 1159 1978 
L 1159 0 
L 581 0 
L 581 3500 
L 1159 3500 
L 1159 2956 
Q 1366 3272 1645 3428 
Q 1925 3584 2291 3584 
Q 2894 3584 3203 3211 
Q 3513 2838 3513 2113 
z
" transform="scale(0.015625)"/>
       <path id="DejaVuSans-29" d="M 513 4856 
L 1013 4856 
Q 1481 4119 1714 3412 
Q 1947 2706 1947 2009 
Q 1947 1309 1714 600 
Q 1481 -109 1013 -844 
L 513 -844 
Q 928 -128 1133 580 
Q 1338 1288 1338 2009 
Q 1338 2731 1133 3434 
Q 928 4138 513 4856 
z
" transform="scale(0.015625)"/>
      </defs>
      <use xlink:href="#DejaVuSans-6c"/>
      <use xlink:href="#DejaVuSans-6f" x="27.783203"/>
      <use xlink:href="#DejaVuSans-67" x="88.964844"/>
      <use xlink:href="#DejaVuSans-31" x="152.441406"/>
      <use xlink:href="#DejaVuSans-30" x="216.064453"/>
      <use xlink:href="#DejaVuSans-28" x="279.6875"/>
      <use xlink:href="#DejaVuSans-23" x="318.701172"/>
      <use xlink:href="#DejaVuSans-20" x="402.490234"/>
      <use xlink:href="#DejaVuSans-66" x="434.277344"/>
      <use xlink:href="#DejaVuSans-2d" x="463.982422"/>
      <use xlink:href="#DejaVuSans-65" x="500.066406"/>
      <use xlink:href="#DejaVuSans-76" x="561.589844"/>
      <use xlink:href="#DejaVuSans-61" x="620.769531"/>
      <use xlink:href="#DejaVuSans-6c" x="682.048828"/>
      <use xlink:href="#DejaVuSans-73" x="709.832031"/>
      <use xlink:href="#DejaVuSans-20" x="761.931641"/>
      <use xlink:href="#DejaVuSans-2f" x="793.71875"/>
      <use xlink:href="#DejaVuSans-20" x="827.410156"/>
      <use xlink:href="#DejaVuSans-64" x="859.197266"/>
      <use xlink:href="#DejaVuSans-69" x="922.673828"/>
      <use xlink:href="#DejaVuSans-6d" x="950.457031"/>
      <use xlink:href="#DejaVuSans-65" x="1047.869141"/>
      <use xlink:href="#DejaVuSans-6e" x="1109.392578"/>
      <use xlink:href="#DejaVuSans-73" x="1172.771484"/>
      <use xlink:href="#DejaVuSans-69" x="1224.871094"/>
      <use xlink:href="#DejaVuSans-6f" x="1252.654297"/>
      <use xlink:href="#DejaVuSans-6e" x="1313.835938"/>
      <use xlink:href="#DejaVuSans-29" x="1377.214844"/>
     </g>
    </g>
   </g>
   <g id="matplotlib.axis_2">
    <g id="ytick_1">
     <g id="line2d_21">
      <path d="M 57.6 298.944 
L 360.8064 298.944 
" clip-path="url(#p0abbe7dbc1)" style="fill: none; stroke: #b0b0b0; stroke-width: 0.8; stroke-linecap: square"/>
     </g>
     <g id="line2d_22">
      <defs>
       <path id="m3678cbe2d6" d="M 0 0 
L -3.5 0 
" style="stroke: #000000; stroke-width: 0.8"/>
      </defs>
      <g>
       <use xlink:href="#m3678cbe2d6" x="57.6" y="298.944" style="stroke: #000000; stroke-width: 0.8"/>
      </g>
     </g>
     <g id="text_6">
      <!-- 0.0 -->
      <g transform="translate(25.155 305.02275) scale(0.16 -0.16)">
       <defs>
        <path id="DejaVuSans-2e" d="M 684 794 
L 1344 794 
L 1344 0 
L 684 0 
L 684 794 
z
" transform="scale(0.015625)"/>
       </defs>
       <use xlink:href="#DejaVuSans-30"/>
       <use xlink:href="#DejaVuSans-2e" x="63.623047"/>
       <use xlink:href="#DejaVuSans-30" x="95.410156"/>
      </g>
     </g>
    </g>
    <g id="ytick_2">
     <g id="line2d_23">
      <path d="M 57.6 240.5376 
L 360.8064 240.5376 
" clip-path="url(#p0abbe7dbc1)" style="fill: none; stroke: #b0b0b0; stroke-width: 0.8; stroke-linecap: square"/>
     </g>
     <g id="line2d_24">
      <g>
       <use xlink:href="#m3678cbe2d6" x="57.6" y="240.5376" style="stroke: #000000; stroke-width: 0.8"/>
      </g>
     </g>
     <g id="text_7">
      <!-- 0.2 -->
      <g transform="translate(25.155 246.61635) scale(0.16 -0.16)">
       <use xlink:href="#DejaVuSans-30"/>
       <use xlink:href="#DejaVuSans-2e" x="63.623047"/>
       <use xlink:href="#DejaVuSans-32" x="95.410156"/>
      </g>
     </g>
    </g>
    <g id="ytick_3">
     <g id="line2d_25">
      <path d="M 57.6 182.1312 
L 360.8064 182.1312 
" clip-path="url(#p0abbe7dbc1)" style="fill: none; stroke: #b0b0b0; stroke-width: 0.8; stroke-linecap: square"/>
     </g>
     <g id="line2d_26">
      <g>
       <use xlink:href="#m3678cbe2d6" x="57.6" y="182.1312" style="stroke: #000000; stroke-width: 0.8"/>
      </g>
     </g>
     <g id="text_8">
      <!-- 0.4 -->
      <g transform="translate(25.155 188.20995) scale(0.16 -0.16)">
       <use xlink:href="#DejaVuSans-30"/>
       <use xlink:href="#DejaVuSans-2e" x="63.623047"/>
       <use xlink:href="#DejaVuSans-34" x="95.410156"/>
      </g>
     </g>
    </g>
    <g id="ytick_4">
     <g id="line2d_27">
      <path d="M 57.6 123.7248 
L 360.8064 123.7248 
" clip-path="url(#p0abbe7dbc1)" style="fill: none; stroke: #b0b0b0; stroke-width: 0.8; stroke-linecap: square"/>
     </g>
     <g id="line2d_28">
      <g>
       <use xlink:href="#m3678cbe2d6" x="57.6" y="123.7248" style="stroke: #000000; stroke-width: 0.8"/>
      </g>
     </g>
     <g id="text_9">
      <!-- 0.6 -->
      <g transform="translate(25.155 129.80355) scale(0.16 -0.16)">
       <use xlink:href="#DejaVuSans-30"/>
       <use xlink:href="#DejaVuSans-2e" x="63.623047"/>
       <use xlink:href="#DejaVuSans-36" x="95.410156"/>
      </g>
     </g>
    </g>
    <g id="ytick_5">
     <g id="line2d_29">
      <path d="M 57.6 65.3184 
L 360.8064 65.3184 
" clip-path="url(#p0abbe7dbc1)" style="fill: none; stroke: #b0b0b0; stroke-width: 0.8; stroke-linecap: square"/>
     </g>
     <g id="line2d_30">
      <g>
       <use xlink:href="#m3678cbe2d6" x="57.6" y="65.3184" style="stroke: #000000; stroke-width: 0.8"/>
      </g>
     </g>
     <g id="text_10">
      <!-- 0.8 -->
      <g transform="translate(25.155 71.39715) scale(0.16 -0.16)">
       <defs>
        <path id="DejaVuSans-38" d="M 2034 2216 
Q 1584 2216 1326 1975 
Q 1069 1734 1069 1313 
Q 1069 891 1326 650 
Q 1584 409 2034 409 
Q 2484 409 2743 651 
Q 3003 894 3003 1313 
Q 3003 1734 2745 1975 
Q 2488 2216 2034 2216 
z
M 1403 2484 
Q 997 2584 770 2862 
Q 544 3141 544 3541 
Q 544 4100 942 4425 
Q 1341 4750 2034 4750 
Q 2731 4750 3128 4425 
Q 3525 4100 3525 3541 
Q 3525 3141 3298 2862 
Q 3072 2584 2669 2484 
Q 3125 2378 3379 2068 
Q 3634 1759 3634 1313 
Q 3634 634 3220 271 
Q 2806 -91 2034 -91 
Q 1263 -91 848 271 
Q 434 634 434 1313 
Q 434 1759 690 2068 
Q 947 2378 1403 2484 
z
M 1172 3481 
Q 1172 3119 1398 2916 
Q 1625 2713 2034 2713 
Q 2441 2713 2670 2916 
Q 2900 3119 2900 3481 
Q 2900 3844 2670 4047 
Q 2441 4250 2034 4250 
Q 1625 4250 1398 4047 
Q 1172 3844 1172 3481 
z
" transform="scale(0.015625)"/>
       </defs>
       <use xlink:href="#DejaVuSans-30"/>
       <use xlink:href="#DejaVuSans-2e" x="63.623047"/>
       <use xlink:href="#DejaVuSans-38" x="95.410156"/>
      </g>
     </g>
    </g>
    <g id="ytick_6">
     <g id="line2d_31">
      <path d="M 57.6 6.912 
L 360.8064 6.912 
" clip-path="url(#p0abbe7dbc1)" style="fill: none; stroke: #b0b0b0; stroke-width: 0.8; stroke-linecap: square"/>
     </g>
     <g id="line2d_32">
      <g>
       <use xlink:href="#m3678cbe2d6" x="57.6" y="6.912" style="stroke: #000000; stroke-width: 0.8"/>
      </g>
     </g>
     <g id="text_11">
      <!-- 1.0 -->
      <g transform="translate(25.155 12.99075) scale(0.16 -0.16)">
       <use xlink:href="#DejaVuSans-31"/>
       <use xlink:href="#DejaVuSans-2e" x="63.623047"/>
       <use xlink:href="#DejaVuSans-30" x="95.410156"/>
      </g>
     </g>
    </g>
    <g id="text_12">
     <!-- Fraction of function,target pairs -->
     <g transform="translate(17.619531 287.313) rotate(-90) scale(0.17 -0.17)">
      <defs>
       <path id="DejaVuSans-46" d="M 628 4666 
L 3309 4666 
L 3309 4134 
L 1259 4134 
L 1259 2759 
L 3109 2759 
L 3109 2228 
L 1259 2228 
L 1259 0 
L 628 0 
L 628 4666 
z
" transform="scale(0.015625)"/>
       <path id="DejaVuSans-72" d="M 2631 2963 
Q 2534 3019 2420 3045 
Q 2306 3072 2169 3072 
Q 1681 3072 1420 2755 
Q 1159 2438 1159 1844 
L 1159 0 
L 581 0 
L 581 3500 
L 1159 3500 
L 1159 2956 
Q 1341 3275 1631 3429 
Q 1922 3584 2338 3584 
Q 2397 3584 2469 3576 
Q 2541 3569 2628 3553 
L 2631 2963 
z
" transform="scale(0.015625)"/>
       <path id="DejaVuSans-63" d="M 3122 3366 
L 3122 2828 
Q 2878 2963 2633 3030 
Q 2388 3097 2138 3097 
Q 1578 3097 1268 2742 
Q 959 2388 959 1747 
Q 959 1106 1268 751 
Q 1578 397 2138 397 
Q 2388 397 2633 464 
Q 2878 531 3122 666 
L 3122 134 
Q 2881 22 2623 -34 
Q 2366 -91 2075 -91 
Q 1284 -91 818 406 
Q 353 903 353 1747 
Q 353 2603 823 3093 
Q 1294 3584 2113 3584 
Q 2378 3584 2631 3529 
Q 2884 3475 3122 3366 
z
" transform="scale(0.015625)"/>
       <path id="DejaVuSans-74" d="M 1172 4494 
L 1172 3500 
L 2356 3500 
L 2356 3053 
L 1172 3053 
L 1172 1153 
Q 1172 725 1289 603 
Q 1406 481 1766 481 
L 2356 481 
L 2356 0 
L 1766 0 
Q 1100 0 847 248 
Q 594 497 594 1153 
L 594 3053 
L 172 3053 
L 172 3500 
L 594 3500 
L 594 4494 
L 1172 4494 
z
" transform="scale(0.015625)"/>
       <path id="DejaVuSans-75" d="M 544 1381 
L 544 3500 
L 1119 3500 
L 1119 1403 
Q 1119 906 1312 657 
Q 1506 409 1894 409 
Q 2359 409 2629 706 
Q 2900 1003 2900 1516 
L 2900 3500 
L 3475 3500 
L 3475 0 
L 2900 0 
L 2900 538 
Q 2691 219 2414 64 
Q 2138 -91 1772 -91 
Q 1169 -91 856 284 
Q 544 659 544 1381 
z
M 1991 3584 
L 1991 3584 
z
" transform="scale(0.015625)"/>
       <path id="DejaVuSans-2c" d="M 750 794 
L 1409 794 
L 1409 256 
L 897 -744 
L 494 -744 
L 750 256 
L 750 794 
z
" transform="scale(0.015625)"/>
       <path id="DejaVuSans-70" d="M 1159 525 
L 1159 -1331 
L 581 -1331 
L 581 3500 
L 1159 3500 
L 1159 2969 
Q 1341 3281 1617 3432 
Q 1894 3584 2278 3584 
Q 2916 3584 3314 3078 
Q 3713 2572 3713 1747 
Q 3713 922 3314 415 
Q 2916 -91 2278 -91 
Q 1894 -91 1617 61 
Q 1341 213 1159 525 
z
M 3116 1747 
Q 3116 2381 2855 2742 
Q 2594 3103 2138 3103 
Q 1681 3103 1420 2742 
Q 1159 2381 1159 1747 
Q 1159 1113 1420 752 
Q 1681 391 2138 391 
Q 2594 391 2855 752 
Q 3116 1113 3116 1747 
z
" transform="scale(0.015625)"/>
      </defs>
      <use xlink:href="#DejaVuSans-46"/>
      <use xlink:href="#DejaVuSans-72" x="50.269531"/>
      <use xlink:href="#DejaVuSans-61" x="91.382812"/>
      <use xlink:href="#DejaVuSans-63" x="152.662109"/>
      <use xlink:href="#DejaVuSans-74" x="207.642578"/>
      <use xlink:href="#DejaVuSans-69" x="246.851562"/>
      <use xlink:href="#DejaVuSans-6f" x="274.634766"/>
      <use xlink:href="#DejaVuSans-6e" x="335.816406"/>
      <use xlink:href="#DejaVuSans-20" x="399.195312"/>
      <use xlink:href="#DejaVuSans-6f" x="430.982422"/>
      <use xlink:href="#DejaVuSans-66" x="492.164062"/>
      <use xlink:href="#DejaVuSans-20" x="527.369141"/>
      <use xlink:href="#DejaVuSans-66" x="559.15625"/>
      <use xlink:href="#DejaVuSans-75" x="594.361328"/>
      <use xlink:href="#DejaVuSans-6e" x="657.740234"/>
      <use xlink:href="#DejaVuSans-63" x="721.119141"/>
      <use xlink:href="#DejaVuSans-74" x="776.099609"/>
      <use xlink:href="#DejaVuSans-69" x="815.308594"/>
      <use xlink:href="#DejaVuSans-6f" x="843.091797"/>
      <use xlink:href="#DejaVuSans-6e" x="904.273438"/>
      <use xlink:href="#DejaVuSans-2c" x="967.652344"/>
      <use xlink:href="#DejaVuSans-74" x="999.439453"/>
      <use xlink:href="#DejaVuSans-61" x="1038.648438"/>
      <use xlink:href="#DejaVuSans-72" x="1099.927734"/>
      <use xlink:href="#DejaVuSans-67" x="1139.291016"/>
      <use xlink:href="#DejaVuSans-65" x="1202.767578"/>
      <use xlink:href="#DejaVuSans-74" x="1264.291016"/>
      <use xlink:href="#DejaVuSans-20" x="1303.5"/>
      <use xlink:href="#DejaVuSans-70" x="1335.287109"/>
      <use xlink:href="#DejaVuSans-61" x="1398.763672"/>
      <use xlink:href="#DejaVuSans-69" x="1460.042969"/>
      <use xlink:href="#DejaVuSans-72" x="1487.826172"/>
      <use xlink:href="#DejaVuSans-73" x="1528.939453"/>
     </g>
    </g>
   </g>
   <g id="line2d_33">
    <defs>
     <path id="ma74550c779" d="M 0 1.5 
C 0.397805 1.5 0.77937 1.341951 1.06066 1.06066 
C 1.341951 0.77937 1.5 0.397805 1.5 0 
C 1.5 -0.397805 1.341951 -0.77937 1.06066 -1.06066 
C 0.77937 -1.341951 0.397805 -1.5 0 -1.5 
C -0.397805 -1.5 -0.77937 -1.341951 -1.06066 -1.06066 
C -1.341951 -0.77937 -1.5 -0.397805 -1.5 0 
C -1.5 0.397805 -1.341951 0.77937 -1.06066 1.06066 
C -0.77937 1.341951 -0.397805 1.5 0 1.5 
z
" style="stroke: #f5deb3"/>
    </defs>
    <g>
     <use xlink:href="#ma74550c779" x="238.977403" y="6.912" style="fill: #f5deb3; stroke: #f5deb3"/>
     <use xlink:href="#ma74550c779" x="238.977403" y="6.912" style="fill: #f5deb3; stroke: #f5deb3"/>
    </g>
   </g>
   <g id="line2d_34">
    <defs>
     <path id="m461e1a1cdd" d="M 0 1.5 
C 0.397805 1.5 0.77937 1.341951 1.06066 1.06066 
C 1.341951 0.77937 1.5 0.397805 1.5 0 
C 1.5 -0.397805 1.341951 -0.77937 1.06066 -1.06066 
C 0.77937 -1.341951 0.397805 -1.5 0 -1.5 
C -0.397805 -1.5 -0.77937 -1.341951 -1.06066 -1.06066 
C -1.341951 -0.77937 -1.5 -0.397805 -1.5 0 
C -1.5 0.397805 -1.341951 0.77937 -1.06066 1.06066 
C -0.77937 1.341951 -0.397805 1.5 0 1.5 
z
" style="stroke: #000080"/>
    </defs>
    <g>
     <use xlink:href="#m461e1a1cdd" x="346.660121" y="116.853459" style="fill: #000080; stroke: #000080"/>
     <use xlink:href="#m461e1a1cdd" x="346.660121" y="116.853459" style="fill: #000080; stroke: #000080"/>
    </g>
   </g>
   <g id="line2d_35">
    <path d="M 80.059535 298.944 
L 80.059535 298.791304 
L 81.565263 298.714955 
L 81.565263 298.638607 
L 83.678349 298.562259 
L 83.678349 298.485911 
L 84.596168 298.409562 
L 84.596168 298.333214 
L 86.712053 298.256866 
L 86.712053 298.180518 
L 87.781732 298.180518 
L 87.876026 297.951473 
L 88.340532 297.875125 
L 88.432072 297.722428 
L 90.091707 297.64608 
L 90.091707 297.569732 
L 91.305777 297.493384 
L 91.305777 297.417035 
L 91.770283 297.417035 
L 91.770283 297.264339 
L 92.298097 297.264339 
L 92.298097 297.111642 
L 92.811505 297.035294 
L 92.811505 296.958946 
L 93.169831 296.882598 
L 93.169831 296.806249 
L 93.934916 296.729901 
L 93.934916 296.653553 
L 94.604437 296.577205 
L 94.670097 296.424508 
L 94.865713 296.424508 
L 94.930469 296.042767 
L 95.314391 295.966419 
L 95.377623 295.813722 
L 95.752617 295.737374 
L 95.814395 295.508329 
L 96.059501 295.431981 
L 96.059501 295.355633 
L 96.421272 295.279285 
L 96.421272 295.202936 
L 96.658645 295.126588 
L 96.658645 295.05024 
L 96.776218 295.05024 
L 96.83473 294.821195 
L 96.95121 294.821195 
L 96.95121 294.592151 
L 97.523034 294.515802 
L 97.579272 294.286758 
L 97.968299 294.210409 
L 98.023223 294.057713 
L 98.295464 294.057713 
L 98.403267 293.828668 
L 98.670102 293.75232 
L 98.775785 293.523275 
L 99.037425 293.523275 
L 99.14107 293.294231 
L 99.999733 293.217882 
L 100.049042 292.912489 
L 100.342215 292.836141 
L 100.438933 292.683445 
L 100.535156 292.607096 
L 100.630889 292.301704 
L 100.9152 292.225355 
L 101.009023 291.843614 
L 101.195278 291.767266 
L 101.287718 291.538221 
L 101.607728 291.538221 
L 101.698168 291.232828 
L 101.788176 291.15648 
L 101.877755 290.927435 
L 101.922385 290.927435 
L 102.011329 290.469346 
L 102.099854 290.469346 
L 102.143961 290.240301 
L 102.275664 290.163953 
L 102.362957 286.575586 
L 102.708132 286.499238 
L 102.793446 286.193845 
L 103.047088 286.117496 
L 103.130882 282.758174 
L 103.214303 282.681826 
L 103.297357 282.147388 
L 103.462371 282.07104 
L 103.462371 281.994692 
L 103.666625 281.918344 
L 103.707211 281.689299 
L 103.908837 281.612951 
L 103.988886 281.307558 
L 104.068596 281.307558 
L 104.14797 277.719191 
L 104.42317 277.642842 
L 104.462158 274.512565 
L 104.617306 274.512565 
L 104.694402 273.672734 
L 104.732832 273.672734 
L 104.809458 269.931671 
L 104.923814 269.855322 
L 104.999667 269.320885 
L 105.112877 269.244536 
L 105.187973 265.656169 
L 105.559021 265.579821 
L 105.668924 265.121732 
L 105.814468 265.045384 
L 105.814468 264.969035 
L 106.137884 264.969035 
L 106.137884 262.144151 
L 106.315185 262.144151 
L 106.315185 259.090221 
L 106.525765 259.090221 
L 106.595437 255.501854 
L 106.768498 255.501854 
L 106.871575 255.272809 
L 106.905809 255.272809 
L 106.905809 254.891068 
L 107.278327 254.81472 
L 107.378656 251.684442 
L 107.478452 251.608094 
L 107.478452 251.531746 
L 107.937293 251.455398 
L 108.001938 245.042146 
L 108.258317 244.965798 
L 108.29012 241.988216 
L 108.416798 241.988216 
L 108.416798 238.781591 
L 108.636452 238.705242 
L 108.667622 238.552546 
L 109.22004 238.476198 
L 109.310553 237.94176 
L 109.609156 237.865412 
L 109.609156 237.789064 
L 109.873904 237.789064 
L 109.932235 234.964179 
L 110.505802 234.887831 
L 110.505802 234.735134 
L 110.813965 234.658786 
L 110.869457 234.506089 
L 111.253379 234.429741 
L 111.334639 234.277045 
L 112.309003 234.200696 
L 112.334649 234.048 
L 112.487797 233.971652 
L 112.563906 233.818955 
L 112.915065 233.742607 
L 113.014204 233.513562 
L 113.357132 233.437214 
L 113.357132 233.360866 
L 113.550321 233.284518 
L 113.550321 233.131821 
L 114.372943 233.055473 
L 114.372943 232.979125 
L 115.094818 232.902776 
L 115.161095 232.673732 
L 115.314838 232.597384 
L 115.358535 232.444687 
L 115.51068 232.368339 
L 115.51068 232.291991 
L 116.232657 232.215642 
L 116.336531 232.062946 
L 116.624364 231.986598 
L 116.624364 231.910249 
L 116.786884 231.833901 
L 116.786884 231.757553 
L 117.04802 231.681205 
L 117.04802 231.604856 
L 117.36452 231.528508 
L 117.384126 231.375812 
L 117.559663 231.299464 
L 117.559663 231.223115 
L 117.829505 231.223115 
L 117.829505 231.070419 
L 118.13323 230.994071 
L 118.13323 230.917722 
L 118.283273 230.917722 
L 118.376446 230.688678 
L 118.634901 230.612329 
L 118.74459 230.383285 
L 119.194864 230.306936 
L 119.28364 230.077892 
L 119.704027 230.001544 
L 119.790438 229.696151 
L 120.115225 229.619802 
L 120.115225 229.543454 
L 120.616896 229.467106 
L 120.64987 229.314409 
L 120.797541 229.238061 
L 120.862802 229.085365 
L 121.073351 229.085365 
L 121.169739 228.85632 
L 121.249686 228.779972 
L 121.249686 228.703624 
L 121.722363 228.627275 
L 121.768984 228.321882 
L 122.13785 228.245534 
L 122.183453 228.092838 
L 122.349728 228.016489 
L 122.439807 227.863793 
L 122.795872 227.787445 
L 122.854567 227.634748 
L 123.000507 227.5584 
L 123.000507 227.482052 
L 123.188551 227.405704 
L 123.217315 227.253007 
L 123.331933 227.176659 
L 123.331933 227.100311 
L 123.4884 227.023962 
L 123.544976 226.871266 
L 123.741664 226.794918 
L 123.839241 226.565873 
L 124.14266 226.489525 
L 124.14266 226.413176 
L 124.306121 226.336828 
L 124.346766 226.184132 
L 124.521883 226.107784 
L 124.588805 225.878739 
L 124.642171 225.878739 
L 124.721937 225.496998 
L 125.309642 225.420649 
L 125.412228 225.191605 
L 125.501533 225.115256 
L 125.577745 224.96256 
L 125.741818 224.886212 
L 125.792016 224.657167 
L 125.979073 224.580819 
L 125.979073 224.504471 
L 126.225624 224.428122 
L 126.323346 224.199078 
L 126.565455 224.122729 
L 126.625498 223.970033 
L 126.887435 223.893685 
L 126.887435 223.817336 
L 127.07567 223.740988 
L 127.087372 223.588292 
L 127.203997 223.511944 
L 127.285207 223.282899 
L 127.492435 223.206551 
L 127.572412 223.053854 
L 127.731351 222.977506 
L 127.810321 222.824809 
L 127.933749 222.748461 
L 127.967271 222.595765 
L 128.288276 222.519416 
L 128.386795 222.214024 
L 128.77579 222.137675 
L 128.871795 221.832282 
L 129.093918 221.755934 
L 129.167381 221.526889 
L 129.344604 221.450541 
L 129.427428 221.0688 
L 129.724648 220.992452 
L 129.80582 220.458014 
L 130.017244 220.381666 
L 130.117094 220.228969 
L 130.305359 220.152621 
L 130.4135 219.923576 
L 130.666662 219.847228 
L 130.695654 219.694532 
L 130.878246 219.618184 
L 130.926003 219.389139 
L 131.078016 219.312791 
L 131.181817 219.007398 
L 131.219422 219.007398 
L 131.219422 218.854701 
L 131.406324 218.778353 
L 131.406324 218.702005 
L 131.526822 218.702005 
L 131.609794 218.396612 
L 131.738138 218.320264 
L 131.820186 218.091219 
L 131.929028 218.014871 
L 131.929028 217.938522 
L 132.126951 217.862174 
L 132.171645 217.633129 
L 132.305093 217.556781 
L 132.340519 217.404085 
L 132.4376 217.327736 
L 132.525422 217.098692 
L 132.621556 217.022344 
L 132.717201 216.716951 
L 132.769166 216.640602 
L 132.820989 216.487906 
L 133.111983 216.411558 
L 133.222067 216.029816 
L 133.498651 215.953468 
L 133.581667 215.724424 
L 133.623039 215.648075 
L 133.672565 215.419031 
L 133.885683 215.342682 
L 133.926391 215.189986 
L 134.047992 215.189986 
L 134.128625 214.884593 
L 134.176839 214.808245 
L 134.280881 214.5792 
L 134.423996 214.502852 
L 134.503036 214.197459 
L 134.573889 214.121111 
L 134.660127 213.892066 
L 134.769315 213.815718 
L 134.769315 213.739369 
L 134.939627 213.663021 
L 135.039546 213.433976 
L 135.222628 213.357628 
L 135.290827 213.128584 
L 135.411462 213.052235 
L 135.478982 212.899539 
L 135.576083 212.823191 
L 135.665273 212.594146 
L 135.702311 212.517798 
L 135.812989 212.212405 
L 136.010584 212.136056 
L 136.046948 211.830664 
L 136.270855 211.754315 
L 136.28521 211.525271 
L 136.399653 211.448922 
L 136.399653 211.372574 
L 136.612375 211.296226 
L 136.689775 210.990833 
L 136.724851 210.990833 
L 136.752866 210.68544 
L 136.996227 210.609092 
L 137.106437 210.380047 
L 137.13389 210.303699 
L 137.216006 209.845609 
L 137.27736 209.769261 
L 137.365629 209.540216 
L 137.466966 209.463868 
L 137.527508 209.311172 
L 137.654681 209.234824 
L 137.761112 208.929431 
L 137.860347 208.853082 
L 137.860347 208.776734 
L 138.063788 208.700386 
L 138.109423 208.318645 
L 138.187398 208.242296 
L 138.277963 207.784207 
L 138.400179 207.707859 
L 138.502486 207.478814 
L 138.629591 207.402466 
L 138.718057 207.020725 
L 138.887503 206.944376 
L 138.968547 206.715332 
L 139.030652 206.638984 
L 139.129595 206.486287 
L 139.15425 206.409939 
L 139.221885 206.180894 
L 139.325934 206.104546 
L 139.417268 205.799153 
L 139.508159 205.722805 
L 139.610642 205.417412 
L 139.658677 205.341064 
L 139.760345 205.188367 
L 139.825839 205.112019 
L 139.914782 204.730278 
L 139.973845 204.653929 
L 140.073829 204.272188 
L 140.248984 204.19584 
L 140.307009 203.966795 
L 140.411004 203.890447 
L 140.480016 203.737751 
L 140.554495 203.661402 
L 140.66282 203.432358 
L 140.696899 203.356009 
L 140.781828 202.89792 
L 140.995278 202.821572 
L 141.067748 202.439831 
L 141.156561 202.363482 
L 141.211857 202.210786 
L 141.299993 202.134438 
L 141.409586 201.676348 
L 141.464143 201.6 
L 141.561951 201.294607 
L 141.626874 201.218259 
L 141.702336 200.836518 
L 141.793563 200.760169 
L 141.889677 200.378428 
L 142.069896 200.30208 
L 142.127835 200.073035 
L 142.201317 199.996687 
L 142.274514 199.614946 
L 142.347427 199.538598 
L 142.440759 199.233205 
L 142.569624 199.156856 
L 142.65675 198.851464 
L 142.758737 198.775115 
L 142.844994 198.240678 
L 142.920776 198.164329 
L 143.001275 197.858936 
L 143.041396 197.782588 
L 143.051412 197.553544 
L 143.18612 197.477195 
L 143.290229 197.019106 
L 143.309995 196.942758 
L 143.418334 196.561016 
L 143.452675 196.484668 
L 143.452675 196.40832 
L 143.579681 196.331972 
L 143.642864 195.950231 
L 143.792681 195.873882 
L 143.845556 195.568489 
L 143.936538 195.492141 
L 144.012814 195.263096 
L 144.098256 195.186748 
L 144.183312 194.805007 
L 144.263291 194.728659 
L 144.272678 194.499614 
L 144.426892 194.423266 
L 144.464087 194.041525 
L 144.589081 193.965176 
L 144.694906 193.201694 
L 144.759032 193.125346 
L 144.772744 192.896301 
L 144.931992 192.819953 
L 145.040416 192.285515 
L 145.112353 192.209167 
L 145.134777 192.056471 
L 145.233127 191.980122 
L 145.326529 191.445685 
L 145.361989 191.369336 
L 145.38854 191.140292 
L 145.533906 191.063944 
L 145.630196 190.758551 
L 145.665089 190.682202 
L 145.76938 190.300461 
L 145.83427 190.224113 
L 145.929039 189.842372 
L 146.040426 189.766024 
L 146.146911 189.384282 
L 146.168136 189.307934 
L 146.261241 189.078889 
L 146.30341 189.002541 
L 146.370685 188.6208 
L 146.454441 188.544452 
L 146.537825 188.239059 
L 146.595975 188.162711 
L 146.703494 187.704621 
L 146.765245 187.628273 
L 146.863628 187.246532 
L 146.908549 187.170184 
L 147.014301 186.635746 
L 147.143646 186.559398 
L 147.244081 185.948612 
L 147.30808 185.872264 
L 147.367881 185.414174 
L 147.46317 185.337826 
L 147.573734 184.879736 
L 147.613064 184.803388 
L 147.667988 184.497995 
L 147.773463 184.421647 
L 147.878349 184.116254 
L 147.959525 184.039906 
L 148.063382 183.581816 
L 148.109358 183.505468 
L 148.220003 183.047379 
L 148.258006 182.971031 
L 148.311082 182.665638 
L 148.386646 182.589289 
L 148.480675 182.436593 
L 148.5219 182.360245 
L 148.62643 181.978504 
L 148.711861 181.902155 
L 148.711861 181.825807 
L 148.863196 181.749459 
L 148.954879 181.291369 
L 149.183958 181.215021 
L 149.183958 181.138673 
L 149.374539 181.062325 
L 149.438827 180.680584 
L 171.859642 180.604235 
L 171.859642 180.527887 
L 172.819947 180.451539 
L 172.873368 180.298842 
L 183.421263 180.222494 
L 183.421263 180.146146 
L 185.988305 180.069798 
L 185.988305 179.993449 
L 186.865648 179.917101 
L 186.931359 179.764405 
L 190.789852 179.688056 
L 190.789852 179.611708 
L 191.213296 179.53536 
L 191.213296 179.459012 
L 191.443299 179.382664 
L 191.443299 179.306315 
L 192.166628 179.229967 
L 192.166628 179.153619 
L 192.455377 179.077271 
L 192.455377 179.000922 
L 192.73976 178.924574 
L 192.757236 178.695529 
L 192.977323 178.619181 
L 192.977323 178.542833 
L 193.499919 178.466485 
L 193.569698 178.23744 
L 193.779183 178.161092 
L 193.839524 177.932047 
L 194.003385 177.855699 
L 194.098564 177.626654 
L 194.249988 177.550306 
L 194.338033 177.397609 
L 194.639435 177.321261 
L 194.68872 177.168565 
L 194.885215 177.092216 
L 194.885215 177.015868 
L 195.231566 176.93952 
L 195.317944 176.786824 
L 195.499999 176.710475 
L 195.56398 176.481431 
L 195.789552 176.405082 
L 195.848323 176.099689 
L 196.375925 176.023341 
L 196.455459 175.870645 
L 196.563508 175.794296 
L 196.659355 175.488904 
L 196.710853 175.412555 
L 196.787548 175.259859 
L 196.893997 175.183511 
L 196.893997 175.107162 
L 197.03623 175.030814 
L 197.145238 174.801769 
L 197.277463 174.725421 
L 197.277463 174.649073 
L 197.461308 174.572725 
L 197.461308 174.496376 
L 197.617786 174.420028 
L 197.724306 174.114635 
L 197.79535 174.038287 
L 197.853352 173.656546 
L 197.958281 173.580198 
L 198.02306 173.427501 
L 198.124636 173.351153 
L 198.159711 173.198456 
L 198.28422 173.122108 
L 198.36827 172.969412 
L 198.492724 172.893064 
L 198.573233 172.664019 
L 198.746711 172.587671 
L 198.846786 172.129581 
L 198.902925 172.053233 
L 199.010357 171.671492 
L 199.123026 171.595144 
L 199.227191 171.213402 
L 199.288759 171.137054 
L 199.315946 170.984358 
L 199.475756 170.908009 
L 199.52433 170.755313 
L 199.625313 170.678965 
L 199.625313 170.602616 
L 199.85991 170.526268 
L 199.85991 170.44992 
L 200.013244 170.373572 
L 200.086789 169.991831 
L 200.151147 169.915482 
L 200.256965 169.610089 
L 200.295211 169.533741 
L 200.400224 168.999304 
L 200.441024 168.922955 
L 200.532736 168.235821 
L 200.581953 168.159473 
L 200.6587 167.548687 
L 200.722067 167.472339 
L 200.827517 166.937901 
L 200.892632 166.861553 
L 200.957984 166.55616 
L 201.126205 166.479812 
L 201.233509 166.250767 
L 201.314436 166.174419 
L 201.422249 165.639981 
L 201.504385 165.563633 
L 201.614235 165.105544 
L 201.664258 165.029195 
L 201.76192 164.418409 
L 201.806044 164.342061 
L 201.902536 163.883972 
L 201.947207 163.807624 
L 202.053639 163.273186 
L 202.117037 163.196838 
L 202.17374 162.967793 
L 202.414652 162.891445 
L 202.523571 162.509704 
L 202.609071 162.433355 
L 202.714773 161.975266 
L 202.736178 161.898918 
L 202.828652 161.211784 
L 202.873679 161.135435 
L 202.963202 160.295605 
L 202.988258 160.219256 
L 203.075797 159.532122 
L 203.127838 159.455774 
L 203.225565 158.997685 
L 203.265982 158.921336 
L 203.359953 158.386899 
L 203.410405 158.310551 
L 203.500235 157.928809 
L 203.561558 157.852461 
L 203.658061 157.394372 
L 203.71051 157.318024 
L 203.817545 156.478193 
L 203.842478 156.401845 
L 203.94326 155.180273 
L 203.964884 155.103925 
L 204.067945 153.806005 
L 204.079666 153.729656 
L 204.187733 152.584433 
L 204.222068 152.508085 
L 204.32701 151.744602 
L 204.341651 151.668254 
L 204.446313 150.446682 
L 204.472531 150.370334 
L 204.582745 149.148762 
L 204.633629 149.072414 
L 204.742528 148.38528 
L 204.766831 148.308932 
L 204.87122 147.163708 
L 204.886567 147.08736 
L 204.996434 145.178654 
L 205.000525 145.102306 
L 205.111024 142.506466 
L 205.119526 142.430118 
L 205.229882 138.918099 
L 205.23227 138.841751 
L 205.342516 134.871642 
L 205.352191 134.795294 
L 205.457565 131.665016 
L 205.468451 131.588668 
L 205.575522 129.832659 
L 205.589944 129.756311 
L 205.689876 127.465864 
L 205.705286 127.389515 
L 205.816185 125.02272 
L 205.81761 124.946372 
L 205.924665 122.732273 
L 205.935638 122.655925 
L 206.041321 120.976264 
L 206.061719 120.899915 
L 206.142215 120.518174 
L 216.12218 120.441826 
L 216.12218 120.365478 
L 217.670338 120.289129 
L 217.670338 120.212781 
L 237.46369 120.136433 
L 237.483908 119.983736 
L 243.598635 119.907388 
L 243.598635 119.83104 
L 248.403677 119.754692 
L 248.403677 119.678344 
L 253.684147 119.601995 
L 253.684147 119.525647 
L 254.524074 119.449299 
L 254.524074 119.372951 
L 255.120832 119.296602 
L 255.120832 119.220254 
L 260.554529 119.143906 
L 260.554529 119.067558 
L 263.1108 118.991209 
L 263.181888 118.838513 
L 272.881511 118.762165 
L 272.881511 118.685816 
L 276.677158 118.609468 
L 276.677158 118.53312 
L 279.960099 118.456772 
L 279.960099 118.380424 
L 282.484708 118.304075 
L 282.484708 118.227727 
L 290.263354 118.151379 
L 290.328676 117.845986 
L 295.713833 117.769638 
L 295.713833 117.693289 
L 317.756852 117.616941 
L 317.756853 117.464245 
L 322.631371 117.387896 
L 322.631371 117.311548 
L 329.705771 117.2352 
L 329.705771 117.158852 
L 338.860771 117.082504 
L 338.860771 117.006155 
L 346.660121 116.929807 
L 346.660121 116.853459 
L 360.8064 116.853459 
L 360.8064 116.853459 
" style="fill: none; stroke: #000080; stroke-width: 1.5; stroke-linecap: square"/>
   </g>
   <g id="line2d_36">
    <defs>
     <path id="m04736ba460" d="M 0 6 
C 1.591219 6 3.117479 5.367802 4.242641 4.242641 
C 5.367802 3.117479 6 1.591219 6 0 
C 6 -1.591219 5.367802 -3.117479 4.242641 -4.242641 
C 3.117479 -5.367802 1.591219 -6 0 -6 
C -1.591219 -6 -3.117479 -5.367802 -4.242641 -4.242641 
C -5.367802 -3.117479 -6 -1.591219 -6 0 
C -6 1.591219 -5.367802 3.117479 -4.242641 4.242641 
C -3.117479 5.367802 -1.591219 6 0 6 
z
" style="stroke: #000080; stroke-width: 1.5"/>
    </defs>
    <g>
     <use xlink:href="#m04736ba460" x="188.511729" y="179.688056" style="fill-opacity: 0; stroke: #000080; stroke-width: 1.5"/>
     <use xlink:href="#m04736ba460" x="263.181888" y="118.838513" style="fill-opacity: 0; stroke: #000080; stroke-width: 1.5"/>
     <use xlink:href="#m04736ba460" x="346.660121" y="116.853459" style="fill-opacity: 0; stroke: #000080; stroke-width: 1.5"/>
     <use xlink:href="#m04736ba460" x="346.660121" y="116.853459" style="fill-opacity: 0; stroke: #000080; stroke-width: 1.5"/>
     <use xlink:href="#m04736ba460" x="360.8064" y="116.853459" style="fill-opacity: 0; stroke: #000080; stroke-width: 1.5"/>
    </g>
   </g>
   <g id="line2d_37">
    <path style="fill: none; stroke: #000080; stroke-width: 1.5; stroke-linecap: square"/>
    <g/>
   </g>
   <g id="line2d_38">
    <path d="M 274.176024 118.685816 
" clip-path="url(#p0abbe7dbc1)" style="fill: none; stroke: #000080; stroke-width: 1.5; stroke-linecap: square"/>
    <defs>
     <path id="mb64d213c9c" d="M -12 12 
L 12 -12 
M -12 -12 
L 12 12 
" style="stroke: #000080"/>
    </defs>
    <g clip-path="url(#p0abbe7dbc1)">
     <use xlink:href="#mb64d213c9c" x="274.176024" y="118.685816" style="fill: #000080; stroke: #000080"/>
    </g>
   </g>
   <g id="line2d_39">
    <defs>
     <path id="m1b849acd4b" d="M 0 1.5 
C 0.397805 1.5 0.77937 1.341951 1.06066 1.06066 
C 1.341951 0.77937 1.5 0.397805 1.5 0 
C 1.5 -0.397805 1.341951 -0.77937 1.06066 -1.06066 
C 0.77937 -1.341951 0.397805 -1.5 0 -1.5 
C -0.397805 -1.5 -0.77937 -1.341951 -1.06066 -1.06066 
C -1.341951 -0.77937 -1.5 -0.397805 -1.5 0 
C -1.5 0.397805 -1.341951 0.77937 -1.06066 1.06066 
C -0.77937 1.341951 -0.397805 1.5 0 1.5 
z
" style="stroke: #ff00ff"/>
    </defs>
    <g>
     <use xlink:href="#m1b849acd4b" x="424.100098" y="297.875125" style="fill: #ff00ff; stroke: #ff00ff"/>
     <use xlink:href="#m1b849acd4b" x="424.100098" y="297.875125" style="fill: #ff00ff; stroke: #ff00ff"/>
    </g>
   </g>
   <g id="line2d_40">
    <path d="M 359.288163 298.944 
L 359.288163 298.867652 
L 360.8064 298.867652 
" style="fill: none; stroke: #ff00ff; stroke-width: 1.5; stroke-linecap: square"/>
   </g>
   <g id="line2d_41">
    <defs>
     <path id="md9c826e187" d="M 0 8.485281 
L 5.091169 0 
L 0 -8.485281 
L -5.091169 0 
z
" style="stroke: #ff00ff; stroke-width: 1.5; stroke-linejoin: miter"/>
    </defs>
    <g>
     <use xlink:href="#md9c826e187" x="359.288163" y="298.867652" style="fill-opacity: 0; stroke: #ff00ff; stroke-width: 1.5; stroke-linejoin: miter"/>
     <use xlink:href="#md9c826e187" x="359.288163" y="298.867652" style="fill-opacity: 0; stroke: #ff00ff; stroke-width: 1.5; stroke-linejoin: miter"/>
     <use xlink:href="#md9c826e187" x="360.8064" y="298.867652" style="fill-opacity: 0; stroke: #ff00ff; stroke-width: 1.5; stroke-linejoin: miter"/>
    </g>
   </g>
   <g id="line2d_42">
    <path style="fill: none; stroke: #ff00ff; stroke-width: 1.5; stroke-linecap: square"/>
    <g/>
   </g>
   <g id="line2d_43">
    <path d="M 360.8064 298.867652 
" clip-path="url(#p0abbe7dbc1)" style="fill: none; stroke: #ff00ff; stroke-width: 1.5; stroke-linecap: square"/>
    <defs>
     <path id="mfb401e7edb" d="M -12 12 
L 12 -12 
M -12 -12 
L 12 12 
" style="stroke: #ff00ff"/>
    </defs>
    <g clip-path="url(#p0abbe7dbc1)">
     <use xlink:href="#mfb401e7edb" x="360.8064" y="298.867652" style="fill: #ff00ff; stroke: #ff00ff"/>
    </g>
   </g>
   <g id="line2d_44">
    <defs>
     <path id="ma04075f702" d="M 0 1.5 
C 0.397805 1.5 0.77937 1.341951 1.06066 1.06066 
C 1.341951 0.77937 1.5 0.397805 1.5 0 
C 1.5 -0.397805 1.341951 -0.77937 1.06066 -1.06066 
C 0.77937 -1.341951 0.397805 -1.5 0 -1.5 
C -0.397805 -1.5 -0.77937 -1.341951 -1.06066 -1.06066 
C -1.341951 -0.77937 -1.5 -0.397805 -1.5 0 
C -1.5 0.397805 -1.341951 0.77937 -1.06066 1.06066 
C -0.77937 1.341951 -0.397805 1.5 0 1.5 
z
" style="stroke: #ff7500"/>
    </defs>
    <g>
     <use xlink:href="#ma04075f702" x="158.379008" y="123.7248" style="fill: #ff7500; stroke: #ff7500"/>
     <use xlink:href="#ma04075f702" x="158.379008" y="123.7248" style="fill: #ff7500; stroke: #ff7500"/>
    </g>
   </g>
   <g id="line2d_45">
    <path d="M 79.480672 298.944 
L 79.480672 291.385525 
L 84.818792 291.385525 
L 84.818792 238.018108 
L 88.972154 238.018108 
L 88.972154 235.422268 
L 92.372304 235.422268 
L 92.372304 213.510325 
L 95.250946 213.510325 
L 95.250946 185.414174 
L 97.746984 185.414174 
L 97.746984 182.1312 
L 138.718057 182.1312 
L 138.718057 181.978504 
L 139.496066 181.902155 
L 139.496066 181.825807 
L 139.748412 181.825807 
L 139.748412 181.673111 
L 139.997419 181.673111 
L 139.997419 181.520414 
L 140.485756 181.444066 
L 140.485756 181.291369 
L 140.725251 181.291369 
L 140.725251 181.138673 
L 140.961736 181.138673 
L 140.961736 180.83328 
L 141.42597 180.756932 
L 141.42597 180.604235 
L 141.65386 180.604235 
L 141.65386 180.298842 
L 141.879022 180.298842 
L 141.879022 180.146146 
L 142.101521 180.146146 
L 142.101521 179.840753 
L 142.321419 179.840753 
L 142.321419 179.382664 
L 142.538777 179.382664 
L 142.538777 178.924574 
L 142.753651 178.924574 
L 142.753651 178.390136 
L 142.966099 178.390136 
L 142.966099 177.932047 
L 143.176174 177.932047 
L 143.176174 177.550306 
L 143.38393 177.550306 
L 143.38393 176.93952 
L 143.589416 176.93952 
L 143.589416 176.176038 
L 143.792681 176.176038 
L 143.792681 175.717948 
L 143.993774 175.717948 
L 143.993774 175.336207 
L 144.192739 175.336207 
L 144.192739 174.649073 
L 144.389622 174.649073 
L 144.389622 173.885591 
L 144.584466 173.885591 
L 144.584466 173.503849 
L 144.777313 173.503849 
L 144.777313 172.816715 
L 144.968202 172.816715 
L 144.968202 172.282278 
L 145.157174 172.282278 
L 145.157174 171.366099 
L 145.344267 171.366099 
L 145.344267 170.984358 
L 145.529517 170.984358 
L 145.529517 170.526268 
L 145.712961 170.526268 
L 145.712961 169.991831 
L 145.894633 169.991831 
L 145.894633 169.457393 
L 146.074567 169.457393 
L 146.074567 168.770259 
L 146.252796 168.770259 
L 146.252796 168.235821 
L 146.429353 168.235821 
L 146.429353 167.472339 
L 146.604268 167.472339 
L 146.604268 166.937901 
L 146.777571 166.937901 
L 146.777571 166.55616 
L 146.949293 166.55616 
L 146.949293 165.945374 
L 147.119461 165.945374 
L 147.119461 165.563633 
L 147.288104 165.563633 
L 147.288104 164.952847 
L 147.455248 164.952847 
L 147.455248 164.189365 
L 147.62092 164.189365 
L 147.62092 163.654927 
L 147.785146 163.654927 
L 147.785146 163.044141 
L 147.94795 163.044141 
L 147.94795 162.433355 
L 148.109358 162.433355 
L 148.109358 161.669873 
L 148.269392 161.669873 
L 148.269392 161.211784 
L 148.428077 161.211784 
L 148.428077 160.524649 
L 148.585434 160.524649 
L 148.585434 159.837515 
L 148.741485 159.837515 
L 148.741485 158.997685 
L 148.896253 158.997685 
L 148.896253 158.386899 
L 149.049758 158.386899 
L 149.049758 157.394372 
L 149.20202 157.394372 
L 149.20202 156.707238 
L 149.35306 156.707238 
L 149.35306 155.943755 
L 149.502897 155.943755 
L 149.502897 155.256621 
L 149.65155 155.256621 
L 149.65155 154.264094 
L 149.799037 154.264094 
L 149.799037 153.806005 
L 149.945377 153.806005 
L 149.945377 153.271567 
L 150.090587 153.271567 
L 150.090587 152.202692 
L 150.234685 152.202692 
L 150.234685 151.439209 
L 150.377688 151.439209 
L 150.377688 150.675727 
L 150.519611 150.675727 
L 150.519611 150.064941 
L 150.660472 150.064941 
L 150.660472 149.225111 
L 150.800286 149.225111 
L 150.800286 148.38528 
L 150.939069 148.38528 
L 150.939069 147.392753 
L 151.076835 147.392753 
L 151.076835 146.629271 
L 151.213599 146.629271 
L 151.213599 145.865788 
L 151.349377 145.865788 
L 151.349377 145.178654 
L 151.484181 145.178654 
L 151.484181 144.49152 
L 151.618026 144.49152 
L 151.618026 143.346296 
L 151.750926 143.346296 
L 151.750926 142.506466 
L 151.882893 142.506466 
L 151.882893 141.742984 
L 152.013941 141.742984 
L 152.013941 140.826805 
L 152.144083 140.826805 
L 152.144083 139.757929 
L 152.27333 139.757929 
L 152.27333 139.223492 
L 152.401695 139.223492 
L 152.401695 138.460009 
L 152.529191 138.460009 
L 152.529191 137.543831 
L 152.655828 137.543831 
L 152.655828 137.009393 
L 152.781618 137.009393 
L 152.781618 136.322259 
L 152.906572 136.322259 
L 152.906572 135.711473 
L 153.030703 135.711473 
L 153.030703 134.871642 
L 153.154019 134.871642 
L 153.154019 134.184508 
L 153.276532 134.184508 
L 153.276532 133.650071 
L 153.398253 133.650071 
L 153.398253 133.039285 
L 153.519191 133.039285 
L 153.519191 132.504847 
L 153.639356 132.504847 
L 153.639356 132.046758 
L 153.758759 132.046758 
L 153.758759 131.588668 
L 153.877408 131.588668 
L 153.877408 131.130579 
L 153.995314 131.130579 
L 154.076297 130.596141 
L 154.112486 130.596141 
L 154.112486 130.061704 
L 154.228932 130.061704 
L 154.228932 129.603614 
L 154.344662 129.603614 
L 154.344662 129.298221 
L 154.459684 129.298221 
L 154.459684 128.91648 
L 154.574008 128.91648 
L 154.574008 128.687435 
L 154.68764 128.687435 
L 154.68764 128.382042 
L 154.80059 128.382042 
L 154.891532 128.076649 
L 154.912867 128.076649 
L 154.912867 127.847605 
L 155.024477 127.847605 
L 155.135428 127.465864 
L 155.24573 127.465864 
L 155.355388 127.160471 
L 155.464411 127.160471 
L 155.572805 126.931426 
L 155.680579 126.931426 
L 155.787738 126.702381 
L 155.894291 126.702381 
L 156.000243 126.396988 
L 156.105602 126.396988 
L 156.210374 126.167944 
L 156.314566 126.167944 
L 156.418184 125.786202 
L 156.521235 125.786202 
L 156.623723 125.404461 
L 156.725657 125.404461 
L 156.827041 125.02272 
L 156.927882 125.02272 
L 157.028185 124.640979 
L 157.127956 124.640979 
L 157.127956 124.488282 
L 157.424133 124.411934 
L 157.521831 124.259238 
L 157.811919 124.182889 
L 157.907629 124.030193 
L 158.285673 123.953845 
L 158.379008 123.7248 
L 360.8064 123.7248 
L 360.8064 123.7248 
" style="fill: none; stroke: #ff7500; stroke-width: 1.5; stroke-linecap: square"/>
   </g>
   <g id="line2d_46">
    <defs>
     <path id="m8e1cbddf5d" d="M 0 -6 
L -1.347084 -1.854102 
L -5.706339 -1.854102 
L -2.179628 0.708204 
L -3.526712 4.854102 
L -0 2.291796 
L 3.526712 4.854102 
L 2.179628 0.708204 
L 5.706339 -1.854102 
L 1.347084 -1.854102 
z
" style="stroke: #ff7500; stroke-width: 1.5; stroke-linejoin: bevel"/>
    </defs>
    <g>
     <use xlink:href="#m8e1cbddf5d" x="97.746984" y="182.1312" style="fill-opacity: 0; stroke: #ff7500; stroke-width: 1.5; stroke-linejoin: bevel"/>
     <use xlink:href="#m8e1cbddf5d" x="158.379008" y="123.877496" style="fill-opacity: 0; stroke: #ff7500; stroke-width: 1.5; stroke-linejoin: bevel"/>
     <use xlink:href="#m8e1cbddf5d" x="158.379008" y="123.7248" style="fill-opacity: 0; stroke: #ff7500; stroke-width: 1.5; stroke-linejoin: bevel"/>
     <use xlink:href="#m8e1cbddf5d" x="158.379008" y="123.7248" style="fill-opacity: 0; stroke: #ff7500; stroke-width: 1.5; stroke-linejoin: bevel"/>
     <use xlink:href="#m8e1cbddf5d" x="360.8064" y="123.7248" style="fill-opacity: 0; stroke: #ff7500; stroke-width: 1.5; stroke-linejoin: bevel"/>
    </g>
   </g>
   <g id="line2d_47">
    <path style="fill: none; stroke: #ff7500; stroke-width: 1.5; stroke-linecap: square"/>
    <g/>
   </g>
   <g id="line2d_48">
    <path d="M 274.188689 123.7248 
" clip-path="url(#p0abbe7dbc1)" style="fill: none; stroke: #ff7500; stroke-width: 1.5; stroke-linecap: square"/>
    <defs>
     <path id="m24928c03bb" d="M -12 12 
L 12 -12 
M -12 -12 
L 12 12 
" style="stroke: #ff7500"/>
    </defs>
    <g clip-path="url(#p0abbe7dbc1)">
     <use xlink:href="#m24928c03bb" x="274.188689" y="123.7248" style="fill: #ff7500; stroke: #ff7500"/>
    </g>
   </g>
   <g id="line2d_49">
    <defs>
     <path id="m4535468f7d" d="M 0 1.5 
C 0.397805 1.5 0.77937 1.341951 1.06066 1.06066 
C 1.341951 0.77937 1.5 0.397805 1.5 0 
C 1.5 -0.397805 1.341951 -0.77937 1.06066 -1.06066 
C 0.77937 -1.341951 0.397805 -1.5 0 -1.5 
C -0.397805 -1.5 -0.77937 -1.341951 -1.06066 -1.06066 
C -1.341951 -0.77937 -1.5 -0.397805 -1.5 0 
C -1.5 0.397805 -1.341951 0.77937 -1.06066 1.06066 
C -0.77937 1.341951 -0.397805 1.5 0 1.5 
z
" style="stroke: #6495ed"/>
    </defs>
    <g>
     <use xlink:href="#m4535468f7d" x="343.025316" y="113.417788" style="fill: #6495ed; stroke: #6495ed"/>
     <use xlink:href="#m4535468f7d" x="343.025316" y="113.417788" style="fill: #6495ed; stroke: #6495ed"/>
    </g>
   </g>
   <g id="line2d_50">
    <path d="M 77.135954 298.944 
L 77.135954 298.867652 
L 86.611725 298.791304 
L 86.611725 298.714955 
L 87.303041 298.638607 
L 87.303041 298.562259 
L 89.923746 298.485911 
L 90.007914 298.333214 
L 90.340871 298.256866 
L 90.340871 298.180518 
L 91.227232 298.180518 
L 91.227232 298.027821 
L 92.739013 297.951473 
L 92.739013 297.875125 
L 92.955655 297.875125 
L 92.955655 297.722428 
L 93.798104 297.64608 
L 93.866635 297.417035 
L 94.138286 297.340687 
L 94.205591 297.111642 
L 94.339481 297.111642 
L 94.406071 296.806249 
L 94.670097 296.729901 
L 94.670097 296.653553 
L 95.314391 296.577205 
L 95.314391 296.500856 
L 95.752617 296.500856 
L 95.814395 296.195464 
L 96.540333 296.119115 
L 96.599582 295.966419 
L 96.83473 295.890071 
L 96.89306 295.737374 
L 97.239295 295.661026 
L 97.239295 295.584678 
L 97.410051 295.508329 
L 97.466628 295.355633 
L 97.523034 295.355633 
L 97.579272 295.126588 
L 97.968299 295.05024 
L 97.968299 294.973892 
L 98.18704 294.897544 
L 98.295464 294.668499 
L 98.349443 294.668499 
L 98.456938 294.286758 
L 98.670102 294.210409 
L 98.775785 293.828668 
L 99.037425 293.75232 
L 99.14107 293.523275 
L 99.244147 293.523275 
L 99.346662 293.065186 
L 100.049042 292.988838 
L 100.049042 292.683445 
L 100.293669 292.607096 
L 100.390636 292.4544 
L 100.583083 292.378052 
L 100.678574 292.149007 
L 100.96217 292.072659 
L 100.96217 291.996311 
L 101.379706 291.919962 
L 101.425532 291.538221 
L 101.877755 291.461873 
L 101.966909 290.927435 
L 102.275664 290.851087 
L 102.275664 290.622042 
L 102.449846 290.545694 
L 102.536336 290.240301 
L 102.62243 290.240301 
L 102.66533 289.934908 
L 102.96292 289.85856 
L 102.96292 289.782212 
L 103.089032 289.782212 
L 103.089032 289.629515 
L 103.338746 289.553167 
L 103.421253 288.942381 
L 103.462371 288.942381 
L 103.462371 288.636988 
L 103.585189 288.636988 
L 103.585189 288.331595 
L 103.828446 288.255247 
L 103.908837 287.949854 
L 103.988886 287.949854 
L 104.068596 287.110024 
L 104.266406 287.033675 
L 104.344952 283.750701 
L 104.578638 283.674353 
L 104.655893 276.344922 
L 104.694402 276.344922 
L 104.771184 273.061948 
L 104.961779 272.9856 
L 104.961779 269.778974 
L 105.225409 269.702626 
L 105.225409 266.954089 
L 105.337272 266.954089 
L 105.411479 266.496 
L 105.448473 266.496 
L 105.522244 259.930052 
L 105.668924 259.853704 
L 105.668924 259.777355 
L 105.814468 259.777355 
L 105.814468 259.548311 
L 106.137884 259.548311 
L 106.209005 256.11264 
L 106.279859 256.11264 
L 106.279859 253.058711 
L 106.734013 252.982362 
L 106.734013 252.906014 
L 106.974091 252.906014 
L 106.974091 249.852085 
L 107.278327 249.775736 
L 107.278327 249.699388 
L 107.610695 249.699388 
L 107.709271 243.286136 
L 107.807334 243.209788 
L 107.904887 242.980744 
L 108.09849 242.904395 
L 108.09849 242.828047 
L 108.511249 242.751699 
L 108.605229 242.293609 
L 108.729809 242.293609 
L 108.791791 239.163332 
L 108.884383 239.163332 
L 108.945859 235.956706 
L 109.756698 235.880358 
L 109.815392 235.727661 
L 110.221204 235.651313 
L 110.221204 235.574965 
L 110.813965 235.498616 
L 110.813965 235.422268 
L 111.52289 235.422268 
L 111.629623 235.116875 
L 111.893834 235.040527 
L 111.893834 234.964179 
L 112.690074 234.887831 
L 112.740305 234.735134 
L 113.381389 234.658786 
L 113.405616 234.506089 
L 113.693921 234.506089 
L 113.765312 234.200696 
L 114.11826 234.124348 
L 114.11826 234.048 
L 114.464707 233.971652 
L 114.510421 233.818955 
L 114.737343 233.742607 
L 114.737343 233.666259 
L 115.094818 233.589911 
L 115.094818 233.513562 
L 115.553925 233.437214 
L 115.661605 233.208169 
L 116.128206 233.131821 
L 116.211813 232.979125 
L 116.542574 232.902776 
L 116.542574 232.826428 
L 116.705799 232.75008 
L 116.746385 232.521035 
L 117.00808 232.444687 
L 117.00808 232.368339 
L 117.481849 232.291991 
L 117.481849 232.215642 
L 118.019907 232.139294 
L 118.019907 232.062946 
L 118.245874 231.986598 
L 118.245874 231.910249 
L 118.413586 231.833901 
L 118.413586 231.757553 
L 118.671535 231.681205 
L 118.762809 231.375812 
L 119.371999 231.299464 
L 119.371999 231.223115 
L 119.686697 231.146767 
L 119.738639 230.917722 
L 119.91075 230.841374 
L 120.013265 230.535981 
L 120.115225 230.459633 
L 120.216635 230.306936 
L 120.567327 230.230588 
L 120.567327 230.15424 
L 120.960272 230.077892 
L 121.024972 229.848847 
L 121.550424 229.772499 
L 121.628773 229.543454 
L 121.8 229.467106 
L 121.86188 229.314409 
L 122.183453 229.238061 
L 122.213795 228.932668 
L 122.379802 228.85632 
L 122.469738 228.703624 
L 122.64833 228.627275 
L 122.663136 228.474579 
L 122.810563 228.398231 
L 122.883845 228.245534 
L 123.303344 228.169186 
L 123.403216 227.940141 
L 123.47423 227.863793 
L 123.530848 227.634748 
L 123.727683 227.5584 
L 123.727683 227.482052 
L 123.867028 227.405704 
L 123.867028 227.329355 
L 124.468175 227.253007 
L 124.521883 227.100311 
L 124.668797 227.023962 
L 124.668797 226.871266 
L 124.972322 226.794918 
L 125.050704 226.642221 
L 125.283908 226.565873 
L 125.283908 226.489525 
L 125.552375 226.413176 
L 125.552375 226.336828 
L 125.704082 226.336828 
L 125.704082 226.184132 
L 125.84208 226.107784 
L 125.94181 225.726042 
L 126.016262 225.649694 
L 126.102752 225.420649 
L 126.384166 225.344301 
L 126.384166 225.267953 
L 126.625498 225.191605 
L 126.637484 225.038908 
L 126.804487 224.96256 
L 126.851931 224.733515 
L 127.250446 224.657167 
L 127.250446 224.580819 
L 127.51532 224.504471 
L 127.5952 224.351774 
L 127.663399 224.275426 
L 127.686077 224.122729 
L 127.855297 224.046381 
L 127.855297 223.893685 
L 128.045258 223.893685 
L 128.122923 223.511944 
L 128.211292 223.435595 
L 128.266313 223.282899 
L 128.463066 223.206551 
L 128.495659 223.053854 
L 128.754389 222.977506 
L 128.797167 222.748461 
L 129.009609 222.672113 
L 129.114937 222.519416 
L 129.177852 222.443068 
L 129.250988 222.290372 
L 129.437756 222.214024 
L 129.468704 222.061327 
L 129.876559 221.984979 
L 129.886643 221.679586 
L 130.117094 221.603238 
L 130.186674 221.450541 
L 130.374248 221.374193 
L 130.481995 220.992452 
L 130.714958 220.916104 
L 130.820777 220.687059 
L 131.002163 220.610711 
L 131.011661 220.458014 
L 131.162987 220.381666 
L 131.181817 220.152621 
L 131.350448 220.076273 
L 131.350448 219.923576 
L 131.683241 219.847228 
L 131.774648 219.389139 
L 132.064201 219.312791 
L 132.162715 219.083746 
L 132.225138 219.007398 
L 132.278479 218.778353 
L 132.472778 218.702005 
L 132.472778 218.625656 
L 132.717201 218.549308 
L 132.760515 218.396612 
L 132.864066 218.320264 
L 132.941356 217.938522 
L 133.128961 217.862174 
L 133.171339 217.709478 
L 133.272658 217.633129 
L 133.314714 217.480433 
L 133.498651 217.404085 
L 133.606501 217.17504 
L 133.74661 217.098692 
L 133.828542 216.869647 
L 133.983236 216.793299 
L 134.031824 216.640602 
L 134.168812 216.564254 
L 134.192883 216.258861 
L 134.408148 216.182513 
L 134.510922 215.953468 
L 134.558167 215.87712 
L 134.660127 215.724424 
L 134.800396 215.648075 
L 134.846921 215.342682 
L 135.039546 215.266334 
L 135.116046 215.037289 
L 135.19984 215.037289 
L 135.245388 214.808245 
L 135.366315 214.808245 
L 135.411462 214.5792 
L 135.590978 214.502852 
L 135.687504 214.044762 
L 135.842394 213.968414 
L 135.944949 213.739369 
L 136.032411 213.663021 
L 136.119468 213.357628 
L 136.191709 213.28128 
L 136.299553 212.975887 
L 136.428155 212.899539 
L 136.534656 212.670494 
L 136.598268 212.594146 
L 136.598268 212.517798 
L 136.759863 212.441449 
L 136.766857 212.288753 
L 136.968573 212.212405 
L 137.072066 211.830664 
L 137.243299 211.754315 
L 137.352076 211.448922 
L 137.527508 211.372574 
L 137.581159 210.914485 
L 137.734561 210.838136 
L 137.820715 210.456395 
L 137.893309 210.380047 
L 137.959061 210.227351 
L 138.024583 210.151002 
L 138.024583 210.074654 
L 138.174425 210.074654 
L 138.232735 209.769261 
L 138.355245 209.692913 
L 138.457795 209.311172 
L 138.585202 209.234824 
L 138.68651 208.929431 
L 138.843719 208.853082 
L 138.937418 208.624038 
L 139.160409 208.547689 
L 139.264798 208.013252 
L 139.374701 207.936904 
L 139.435481 207.707859 
L 139.496066 207.707859 
L 139.604629 207.249769 
L 139.688636 207.173421 
L 139.778229 206.79168 
L 139.873328 206.715332 
L 139.873328 206.638984 
L 140.020963 206.562635 
L 140.108991 206.180894 
L 140.260603 206.104546 
L 140.359078 205.646456 
L 140.491494 205.570108 
L 140.560212 205.112019 
L 140.651447 205.035671 
L 140.747902 204.882974 
L 140.826966 204.806626 
L 140.928134 204.501233 
L 140.978515 204.424885 
L 141.051049 204.19584 
L 141.151022 204.119492 
L 141.255976 203.814099 
L 141.288998 203.737751 
L 141.398655 203.279661 
L 141.513111 203.203313 
L 141.513111 203.126965 
L 141.648466 203.050616 
L 141.739954 202.668875 
L 141.84702 202.592527 
L 141.84702 202.516179 
L 142.001193 202.439831 
L 142.090985 201.905393 
L 142.164612 201.829045 
L 142.206555 201.447304 
L 142.284948 201.370955 
L 142.388965 201.141911 
L 142.461437 201.065562 
L 142.528483 200.912866 
L 142.6158 200.836518 
L 142.723105 200.531125 
L 142.809525 200.454776 
L 142.915733 200.073035 
L 143.011313 199.996687 
L 143.121381 199.309553 
L 143.235768 199.233205 
L 143.329739 198.698767 
L 143.457575 198.622419 
L 143.486953 198.469722 
L 143.623446 198.393374 
L 143.72517 198.011633 
L 143.787867 197.935285 
L 143.898283 197.400847 
L 143.936538 197.324499 
L 144.008055 196.942758 
L 144.102992 196.866409 
L 144.197451 196.561016 
L 144.263291 196.484668 
L 144.305496 196.255624 
L 144.422237 196.179275 
L 144.515111 195.568489 
L 144.667357 195.492141 
L 144.681137 195.339445 
L 144.904788 195.263096 
L 145.004344 194.881355 
L 145.053925 194.805007 
L 145.161651 194.423266 
L 145.228667 194.346918 
L 145.3354 193.659784 
L 145.38854 193.583435 
L 145.428297 193.430739 
L 145.54268 193.354391 
L 145.590864 193.048998 
L 145.673802 192.972649 
L 145.708614 192.743605 
L 145.83427 192.667256 
L 145.929039 192.056471 
L 146.083092 191.980122 
L 146.112901 191.751078 
L 146.202046 191.674729 
L 146.30341 191.292988 
L 146.366487 191.21664 
L 146.437719 190.987595 
L 146.500348 190.911247 
L 146.587679 190.300461 
L 146.662213 190.224113 
L 146.761135 190.071416 
L 146.806301 189.995068 
L 146.871803 189.536979 
L 146.99401 189.460631 
L 147.103321 189.002541 
L 147.155726 188.926193 
L 147.256098 188.468104 
L 147.300092 188.391755 
L 147.403671 188.010014 
L 147.494826 187.933666 
L 147.569796 187.32288 
L 147.632698 187.246532 
L 147.711031 186.941139 
L 147.839571 186.864791 
L 147.940229 186.483049 
L 147.982654 186.406701 
L 148.07872 186.254005 
L 148.109358 186.177656 
L 148.200973 185.490522 
L 148.239014 185.414174 
L 148.280771 185.108781 
L 148.4356 185.032433 
L 148.536868 184.421647 
L 148.633874 184.345299 
L 148.663621 183.963558 
L 148.826397 183.887209 
L 148.929253 183.047379 
L 148.976817 182.971031 
L 149.016969 182.589289 
L 149.245299 182.512941 
L 149.284883 182.283896 
L 149.360222 182.207548 
L 149.42456 181.749459 
L 149.556122 181.673111 
L 149.609197 181.444066 
L 149.707872 181.367718 
L 149.746496 181.138673 
L 150.231267 181.062325 
L 150.336941 180.83328 
L 150.971962 180.756932 
L 150.971962 180.680584 
L 174.642317 180.604235 
L 174.642317 180.527887 
L 174.943383 180.451539 
L 174.943383 180.375191 
L 175.439466 180.298842 
L 175.487738 180.146146 
L 176.073985 180.069798 
L 176.161185 179.840753 
L 176.28396 179.764405 
L 176.371047 179.53536 
L 176.561736 179.459012 
L 176.561736 179.382664 
L 176.886925 179.306315 
L 176.887754 179.153619 
L 177.314646 179.077271 
L 177.386611 178.771878 
L 177.969851 178.695529 
L 177.969851 178.619181 
L 178.526437 178.542833 
L 178.526437 178.466485 
L 183.285507 178.390136 
L 183.285507 178.313788 
L 183.81415 178.23744 
L 183.81415 178.161092 
L 184.318296 178.084744 
L 184.318296 178.008395 
L 185.542169 177.932047 
L 185.542169 177.855699 
L 185.975529 177.779351 
L 186.068343 177.626654 
L 186.505793 177.550306 
L 186.573266 177.397609 
L 186.963886 177.321261 
L 186.963886 177.244913 
L 187.278946 177.168565 
L 187.356538 176.93952 
L 187.556884 176.863172 
L 187.647377 176.634127 
L 187.877962 176.557779 
L 187.902897 176.405082 
L 188.153171 176.328734 
L 188.153171 176.252386 
L 188.479536 176.176038 
L 188.552785 175.946993 
L 188.777444 175.870645 
L 188.869718 175.6416 
L 188.945396 175.565252 
L 189.002064 175.336207 
L 189.196053 175.259859 
L 189.197776 175.107162 
L 189.40511 175.030814 
L 189.465084 174.801769 
L 189.622822 174.725421 
L 189.690081 174.572725 
L 189.827632 174.496376 
L 189.899975 174.34368 
L 190.100574 174.267332 
L 190.19109 173.961939 
L 190.340854 173.885591 
L 190.443129 173.656546 
L 190.568094 173.580198 
L 190.678702 173.198456 
L 190.695019 173.122108 
L 190.802908 172.969412 
L 190.98358 172.893064 
L 191.032092 172.664019 
L 191.124079 172.587671 
L 191.230315 172.282278 
L 191.283209 172.205929 
L 191.354016 171.824188 
L 191.446739 171.74784 
L 191.545852 171.518795 
L 191.637636 171.442447 
L 191.675433 171.289751 
L 191.796251 171.213402 
L 191.888691 170.526268 
L 191.956887 170.44992 
L 192.062235 170.068179 
L 192.109154 169.991831 
L 192.218425 169.533741 
L 192.270445 169.457393 
L 192.365686 168.770259 
L 192.425648 168.693911 
L 192.524079 168.388518 
L 192.608708 168.312169 
L 192.715481 167.930428 
L 192.722268 167.85408 
L 192.824492 167.395991 
L 192.84047 167.395991 
L 192.947703 166.708856 
L 192.992116 166.632508 
L 193.071515 166.250767 
L 193.117385 166.174419 
L 193.218882 165.869026 
L 193.261965 165.792678 
L 193.341272 165.487285 
L 193.40062 165.410936 
L 193.501975 165.181892 
L 193.558428 165.105544 
L 193.66811 164.723802 
L 193.722374 164.647454 
L 193.81022 164.494758 
L 193.841206 164.418409 
L 193.892625 164.113016 
L 193.973667 164.036668 
L 194.068332 163.654927 
L 194.13173 163.578579 
L 194.23088 163.349534 
L 194.266117 163.273186 
L 194.35998 162.738748 
L 194.443601 162.6624 
L 194.50315 162.204311 
L 194.565103 162.127962 
L 194.668442 161.669873 
L 194.730816 161.593525 
L 194.809613 161.135435 
L 194.903989 161.059087 
L 195.008968 160.448301 
L 195.058873 160.371953 
L 195.148243 159.837515 
L 195.194962 159.761167 
L 195.304873 159.303078 
L 195.334427 159.226729 
L 195.421573 158.386899 
L 195.480269 158.310551 
L 195.560295 157.623416 
L 195.610598 157.547068 
L 195.701964 157.012631 
L 195.781662 156.936282 
L 195.862534 156.478193 
L 195.937642 156.401845 
L 196.044507 155.791059 
L 196.100399 155.714711 
L 196.201895 155.180273 
L 196.230073 155.103925 
L 196.339421 154.264094 
L 196.364452 154.187746 
L 196.459559 153.424264 
L 196.500506 153.347915 
L 196.606555 152.508085 
L 196.632393 152.431736 
L 196.73424 151.515558 
L 196.75241 151.439209 
L 196.855332 150.828424 
L 196.885412 150.752075 
L 196.97337 150.064941 
L 197.017763 149.988593 
L 197.117551 149.225111 
L 197.148908 149.148762 
L 197.228339 148.232584 
L 197.265966 148.156235 
L 197.376722 146.858315 
L 197.389267 146.781967 
L 197.498748 145.713092 
L 197.519794 145.636744 
L 197.610075 144.720565 
L 197.660686 144.644216 
L 197.76915 143.651689 
L 197.782255 143.575341 
L 197.89165 142.582814 
L 197.900059 142.506466 
L 198.005268 141.055849 
L 198.021712 140.979501 
L 198.128388 138.918099 
L 198.147938 138.841751 
L 198.256564 136.704 
L 198.271195 136.627652 
L 198.380435 134.10816 
L 198.383872 134.031812 
L 198.494038 131.206927 
L 198.502183 131.130579 
L 198.613228 128.305694 
L 198.624453 128.229346 
L 198.732185 124.946372 
L 198.743858 124.870024 
L 198.848333 122.42688 
L 198.865345 122.350532 
L 198.965818 120.594522 
L 198.979652 120.518174 
L 199.082064 118.838513 
L 199.11006 118.762165 
L 199.199116 117.845986 
L 199.226685 117.769638 
L 199.335808 117.311548 
L 201.072895 117.2352 
L 201.072895 117.158852 
L 208.518055 117.082504 
L 208.518055 117.006155 
L 208.844801 116.929807 
L 208.844801 116.853459 
L 209.723862 116.777111 
L 209.775867 116.624414 
L 210.268497 116.548066 
L 210.268497 116.471718 
L 211.040531 116.395369 
L 211.040531 116.319021 
L 211.379646 116.242673 
L 211.449065 116.089976 
L 211.881188 116.013628 
L 211.881188 115.93728 
L 217.133773 115.860932 
L 217.133773 115.784584 
L 219.909794 115.708235 
L 219.909794 115.631887 
L 223.077343 115.555539 
L 223.077343 115.479191 
L 223.446982 115.402842 
L 223.446982 115.326494 
L 224.095884 115.250146 
L 224.095884 115.173798 
L 225.142831 115.097449 
L 225.142831 115.021101 
L 226.067216 114.944753 
L 226.067216 114.868405 
L 241.282428 114.792056 
L 241.282428 114.715708 
L 246.587767 114.63936 
L 246.587767 114.563012 
L 258.809136 114.486664 
L 258.809136 114.410315 
L 294.487886 114.333967 
L 294.487886 114.257619 
L 297.021359 114.181271 
L 297.021359 114.104922 
L 320.947277 114.028574 
L 321.024902 113.875878 
L 330.997442 113.799529 
L 330.997442 113.723181 
L 335.972055 113.646833 
L 335.972055 113.570485 
L 343.025316 113.494136 
L 343.025316 113.417788 
L 360.8064 113.417788 
L 360.8064 113.417788 
" style="fill: none; stroke: #6495ed; stroke-width: 1.5; stroke-linecap: square"/>
   </g>
   <g id="line2d_51">
    <defs>
     <path id="m6a8984c453" d="M -0 6 
L 6 -6 
L -6 -6 
z
" style="stroke: #6495ed; stroke-width: 1.5; stroke-linejoin: miter"/>
    </defs>
    <g>
     <use xlink:href="#m6a8984c453" x="186.068343" y="177.626654" style="fill-opacity: 0; stroke: #6495ed; stroke-width: 1.5; stroke-linejoin: miter"/>
     <use xlink:href="#m6a8984c453" x="227.061731" y="114.868405" style="fill-opacity: 0; stroke: #6495ed; stroke-width: 1.5; stroke-linejoin: miter"/>
     <use xlink:href="#m6a8984c453" x="343.025316" y="113.417788" style="fill-opacity: 0; stroke: #6495ed; stroke-width: 1.5; stroke-linejoin: miter"/>
     <use xlink:href="#m6a8984c453" x="343.025316" y="113.417788" style="fill-opacity: 0; stroke: #6495ed; stroke-width: 1.5; stroke-linejoin: miter"/>
     <use xlink:href="#m6a8984c453" x="360.8064" y="113.417788" style="fill-opacity: 0; stroke: #6495ed; stroke-width: 1.5; stroke-linejoin: miter"/>
    </g>
   </g>
   <g id="line2d_52">
    <path style="fill: none; stroke: #6495ed; stroke-width: 1.5; stroke-linecap: square"/>
    <g/>
   </g>
   <g id="line2d_53">
    <path d="M 294.738768 114.257619 
" clip-path="url(#p0abbe7dbc1)" style="fill: none; stroke: #6495ed; stroke-width: 1.5; stroke-linecap: square"/>
    <defs>
     <path id="m5a42930636" d="M -12 12 
L 12 -12 
M -12 -12 
L 12 12 
" style="stroke: #6495ed"/>
    </defs>
    <g clip-path="url(#p0abbe7dbc1)">
     <use xlink:href="#m5a42930636" x="294.738768" y="114.257619" style="fill: #6495ed; stroke: #6495ed"/>
    </g>
   </g>
   <g id="line2d_54">
    <path d="M 360.8064 298.867652 
L 380.514816 293.10336 
" style="fill: none; stroke: #ff00ff; stroke-width: 1.5; stroke-linecap: square"/>
    <g>
     <use xlink:href="#md9c826e187" x="360.8064" y="298.867652" style="fill-opacity: 0; stroke: #ff00ff; stroke-width: 1.5; stroke-linejoin: miter"/>
     <use xlink:href="#md9c826e187" x="380.514816" y="293.10336" style="fill-opacity: 0; stroke: #ff00ff; stroke-width: 1.5; stroke-linejoin: miter"/>
    </g>
   </g>
   <g id="line2d_55">
    <path d="M 360.8064 123.7248 
L 380.514816 223.01568 
" style="fill: none; stroke: #ff7500; stroke-width: 1.5; stroke-linecap: square"/>
    <g>
     <use xlink:href="#m8e1cbddf5d" x="360.8064" y="123.7248" style="fill-opacity: 0; stroke: #ff7500; stroke-width: 1.5; stroke-linejoin: bevel"/>
     <use xlink:href="#m8e1cbddf5d" x="380.514816" y="223.01568" style="fill-opacity: 0; stroke: #ff7500; stroke-width: 1.5; stroke-linejoin: bevel"/>
    </g>
   </g>
   <g id="line2d_56">
    <path d="M 360.8064 116.853459 
L 380.514816 152.928 
" style="fill: none; stroke: #000080; stroke-width: 1.5; stroke-linecap: square"/>
    <g>
     <use xlink:href="#m04736ba460" x="360.8064" y="116.853459" style="fill-opacity: 0; stroke: #000080; stroke-width: 1.5"/>
     <use xlink:href="#m04736ba460" x="380.514816" y="152.928" style="fill-opacity: 0; stroke: #000080; stroke-width: 1.5"/>
    </g>
   </g>
   <g id="line2d_57">
    <path d="M 360.8064 113.417788 
L 380.514816 82.84032 
" style="fill: none; stroke: #6495ed; stroke-width: 1.5; stroke-linecap: square"/>
    <g>
     <use xlink:href="#m6a8984c453" x="360.8064" y="113.417788" style="fill-opacity: 0; stroke: #6495ed; stroke-width: 1.5; stroke-linejoin: miter"/>
     <use xlink:href="#m6a8984c453" x="380.514816" y="82.84032" style="fill-opacity: 0; stroke: #6495ed; stroke-width: 1.5; stroke-linejoin: miter"/>
    </g>
   </g>
   <g id="line2d_58">
    <path d="M 360.8064 298.944 
L 360.8064 6.912 
" style="fill: none; stroke: #000000; stroke-width: 1.5; stroke-linecap: square"/>
   </g>
   <g id="patch_3">
    <path d="M 57.6 298.944 
L 360.8064 298.944 
" style="fill: none; stroke: #000000; stroke-width: 0.8; stroke-linejoin: miter; stroke-linecap: square"/>
   </g>
   <g id="patch_4">
    <path d="M 57.6 6.912 
L 360.8064 6.912 
" style="fill: none; stroke: #000000; stroke-width: 0.8; stroke-linejoin: miter; stroke-linecap: square"/>
   </g>
   <g id="text_13">
    <!-- RANDOMSEA -->
    <g transform="translate(386.578944 296.966485) scale(0.14 -0.14)">
     <defs>
      <path id="DejaVuSans-52" d="M 2841 2188 
Q 3044 2119 3236 1894 
Q 3428 1669 3622 1275 
L 4263 0 
L 3584 0 
L 2988 1197 
Q 2756 1666 2539 1819 
Q 2322 1972 1947 1972 
L 1259 1972 
L 1259 0 
L 628 0 
L 628 4666 
L 2053 4666 
Q 2853 4666 3247 4331 
Q 3641 3997 3641 3322 
Q 3641 2881 3436 2590 
Q 3231 2300 2841 2188 
z
M 1259 4147 
L 1259 2491 
L 2053 2491 
Q 2509 2491 2742 2702 
Q 2975 2913 2975 3322 
Q 2975 3731 2742 3939 
Q 2509 4147 2053 4147 
L 1259 4147 
z
" transform="scale(0.015625)"/>
      <path id="DejaVuSans-41" d="M 2188 4044 
L 1331 1722 
L 3047 1722 
L 2188 4044 
z
M 1831 4666 
L 2547 4666 
L 4325 0 
L 3669 0 
L 3244 1197 
L 1141 1197 
L 716 0 
L 50 0 
L 1831 4666 
z
" transform="scale(0.015625)"/>
      <path id="DejaVuSans-4e" d="M 628 4666 
L 1478 4666 
L 3547 763 
L 3547 4666 
L 4159 4666 
L 4159 0 
L 3309 0 
L 1241 3903 
L 1241 0 
L 628 0 
L 628 4666 
z
" transform="scale(0.015625)"/>
      <path id="DejaVuSans-44" d="M 1259 4147 
L 1259 519 
L 2022 519 
Q 2988 519 3436 956 
Q 3884 1394 3884 2338 
Q 3884 3275 3436 3711 
Q 2988 4147 2022 4147 
L 1259 4147 
z
M 628 4666 
L 1925 4666 
Q 3281 4666 3915 4102 
Q 4550 3538 4550 2338 
Q 4550 1131 3912 565 
Q 3275 0 1925 0 
L 628 0 
L 628 4666 
z
" transform="scale(0.015625)"/>
      <path id="DejaVuSans-4f" d="M 2522 4238 
Q 1834 4238 1429 3725 
Q 1025 3213 1025 2328 
Q 1025 1447 1429 934 
Q 1834 422 2522 422 
Q 3209 422 3611 934 
Q 4013 1447 4013 2328 
Q 4013 3213 3611 3725 
Q 3209 4238 2522 4238 
z
M 2522 4750 
Q 3503 4750 4090 4092 
Q 4678 3434 4678 2328 
Q 4678 1225 4090 567 
Q 3503 -91 2522 -91 
Q 1538 -91 948 565 
Q 359 1222 359 2328 
Q 359 3434 948 4092 
Q 1538 4750 2522 4750 
z
" transform="scale(0.015625)"/>
      <path id="DejaVuSans-4d" d="M 628 4666 
L 1569 4666 
L 2759 1491 
L 3956 4666 
L 4897 4666 
L 4897 0 
L 4281 0 
L 4281 4097 
L 3078 897 
L 2444 897 
L 1241 4097 
L 1241 0 
L 628 0 
L 628 4666 
z
" transform="scale(0.015625)"/>
      <path id="DejaVuSans-53" d="M 3425 4513 
L 3425 3897 
Q 3066 4069 2747 4153 
Q 2428 4238 2131 4238 
Q 1616 4238 1336 4038 
Q 1056 3838 1056 3469 
Q 1056 3159 1242 3001 
Q 1428 2844 1947 2747 
L 2328 2669 
Q 3034 2534 3370 2195 
Q 3706 1856 3706 1288 
Q 3706 609 3251 259 
Q 2797 -91 1919 -91 
Q 1588 -91 1214 -16 
Q 841 59 441 206 
L 441 856 
Q 825 641 1194 531 
Q 1563 422 1919 422 
Q 2459 422 2753 634 
Q 3047 847 3047 1241 
Q 3047 1584 2836 1778 
Q 2625 1972 2144 2069 
L 1759 2144 
Q 1053 2284 737 2584 
Q 422 2884 422 3419 
Q 422 4038 858 4394 
Q 1294 4750 2059 4750 
Q 2388 4750 2728 4690 
Q 3069 4631 3425 4513 
z
" transform="scale(0.015625)"/>
      <path id="DejaVuSans-45" d="M 628 4666 
L 3578 4666 
L 3578 4134 
L 1259 4134 
L 1259 2753 
L 3481 2753 
L 3481 2222 
L 1259 2222 
L 1259 531 
L 3634 531 
L 3634 0 
L 628 0 
L 628 4666 
z
" transform="scale(0.015625)"/>
     </defs>
     <use xlink:href="#DejaVuSans-52"/>
     <use xlink:href="#DejaVuSans-41" x="65.482422"/>
     <use xlink:href="#DejaVuSans-4e" x="133.890625"/>
     <use xlink:href="#DejaVuSans-44" x="208.695312"/>
     <use xlink:href="#DejaVuSans-4f" x="285.697266"/>
     <use xlink:href="#DejaVuSans-4d" x="364.408203"/>
     <use xlink:href="#DejaVuSans-53" x="450.6875"/>
     <use xlink:href="#DejaVuSans-45" x="514.164062"/>
     <use xlink:href="#DejaVuSans-41" x="577.347656"/>
    </g>
   </g>
   <g id="text_14">
    <!-- BFGS-scip -->
    <g transform="translate(386.578944 226.878805) scale(0.14 -0.14)">
     <defs>
      <path id="DejaVuSans-42" d="M 1259 2228 
L 1259 519 
L 2272 519 
Q 2781 519 3026 730 
Q 3272 941 3272 1375 
Q 3272 1813 3026 2020 
Q 2781 2228 2272 2228 
L 1259 2228 
z
M 1259 4147 
L 1259 2741 
L 2194 2741 
Q 2656 2741 2882 2914 
Q 3109 3088 3109 3444 
Q 3109 3797 2882 3972 
Q 2656 4147 2194 4147 
L 1259 4147 
z
M 628 4666 
L 2241 4666 
Q 2963 4666 3353 4366 
Q 3744 4066 3744 3513 
Q 3744 3084 3544 2831 
Q 3344 2578 2956 2516 
Q 3422 2416 3680 2098 
Q 3938 1781 3938 1306 
Q 3938 681 3513 340 
Q 3088 0 2303 0 
L 628 0 
L 628 4666 
z
" transform="scale(0.015625)"/>
      <path id="DejaVuSans-47" d="M 3809 666 
L 3809 1919 
L 2778 1919 
L 2778 2438 
L 4434 2438 
L 4434 434 
Q 4069 175 3628 42 
Q 3188 -91 2688 -91 
Q 1594 -91 976 548 
Q 359 1188 359 2328 
Q 359 3472 976 4111 
Q 1594 4750 2688 4750 
Q 3144 4750 3555 4637 
Q 3966 4525 4313 4306 
L 4313 3634 
Q 3963 3931 3569 4081 
Q 3175 4231 2741 4231 
Q 1884 4231 1454 3753 
Q 1025 3275 1025 2328 
Q 1025 1384 1454 906 
Q 1884 428 2741 428 
Q 3075 428 3337 486 
Q 3600 544 3809 666 
z
" transform="scale(0.015625)"/>
     </defs>
     <use xlink:href="#DejaVuSans-42"/>
     <use xlink:href="#DejaVuSans-46" x="68.603516"/>
     <use xlink:href="#DejaVuSans-47" x="126.123047"/>
     <use xlink:href="#DejaVuSans-53" x="203.613281"/>
     <use xlink:href="#DejaVuSans-2d" x="267.089844"/>
     <use xlink:href="#DejaVuSans-73" x="303.173828"/>
     <use xlink:href="#DejaVuSans-63" x="355.273438"/>
     <use xlink:href="#DejaVuSans-69" x="410.253906"/>
     <use xlink:href="#DejaVuSans-70" x="438.037109"/>
    </g>
   </g>
   <g id="text_15">
    <!-- ex/fmin2  -->
    <g transform="translate(386.578944 156.791125) scale(0.14 -0.14)">
     <defs>
      <path id="DejaVuSans-78" d="M 3513 3500 
L 2247 1797 
L 3578 0 
L 2900 0 
L 1881 1375 
L 863 0 
L 184 0 
L 1544 1831 
L 300 3500 
L 978 3500 
L 1906 2253 
L 2834 3500 
L 3513 3500 
z
" transform="scale(0.015625)"/>
     </defs>
     <use xlink:href="#DejaVuSans-65"/>
     <use xlink:href="#DejaVuSans-78" x="59.773438"/>
     <use xlink:href="#DejaVuSans-2f" x="118.953125"/>
     <use xlink:href="#DejaVuSans-66" x="152.644531"/>
     <use xlink:href="#DejaVuSans-6d" x="187.849609"/>
     <use xlink:href="#DejaVuSans-69" x="285.261719"/>
     <use xlink:href="#DejaVuSans-6e" x="313.044922"/>
     <use xlink:href="#DejaVuSans-32" x="376.423828"/>
     <use xlink:href="#DejaVuSans-20" x="440.046875"/>
    </g>
   </g>
   <g id="text_16">
    <!-- BIPOP-CMA -->
    <g transform="translate(386.578944 86.703445) scale(0.14 -0.14)">
     <defs>
      <path id="DejaVuSans-49" d="M 628 4666 
L 1259 4666 
L 1259 0 
L 628 0 
L 628 4666 
z
" transform="scale(0.015625)"/>
      <path id="DejaVuSans-50" d="M 1259 4147 
L 1259 2394 
L 2053 2394 
Q 2494 2394 2734 2622 
Q 2975 2850 2975 3272 
Q 2975 3691 2734 3919 
Q 2494 4147 2053 4147 
L 1259 4147 
z
M 628 4666 
L 2053 4666 
Q 2838 4666 3239 4311 
Q 3641 3956 3641 3272 
Q 3641 2581 3239 2228 
Q 2838 1875 2053 1875 
L 1259 1875 
L 1259 0 
L 628 0 
L 628 4666 
z
" transform="scale(0.015625)"/>
      <path id="DejaVuSans-43" d="M 4122 4306 
L 4122 3641 
Q 3803 3938 3442 4084 
Q 3081 4231 2675 4231 
Q 1875 4231 1450 3742 
Q 1025 3253 1025 2328 
Q 1025 1406 1450 917 
Q 1875 428 2675 428 
Q 3081 428 3442 575 
Q 3803 722 4122 1019 
L 4122 359 
Q 3791 134 3420 21 
Q 3050 -91 2638 -91 
Q 1578 -91 968 557 
Q 359 1206 359 2328 
Q 359 3453 968 4101 
Q 1578 4750 2638 4750 
Q 3056 4750 3426 4639 
Q 3797 4528 4122 4306 
z
" transform="scale(0.015625)"/>
     </defs>
     <use xlink:href="#DejaVuSans-42"/>
     <use xlink:href="#DejaVuSans-49" x="68.603516"/>
     <use xlink:href="#DejaVuSans-50" x="98.095703"/>
     <use xlink:href="#DejaVuSans-4f" x="158.398438"/>
     <use xlink:href="#DejaVuSans-50" x="237.109375"/>
     <use xlink:href="#DejaVuSans-2d" x="295.162109"/>
     <use xlink:href="#DejaVuSans-43" x="331.246094"/>
     <use xlink:href="#DejaVuSans-4d" x="401.070312"/>
     <use xlink:href="#DejaVuSans-41" x="487.349609"/>
    </g>
   </g>
   <g id="text_17">
    <!-- best 2009 -->
    <g transform="translate(386.578944 16.615765) scale(0.14 -0.14)">
     <defs>
      <path id="DejaVuSans-62" d="M 3116 1747 
Q 3116 2381 2855 2742 
Q 2594 3103 2138 3103 
Q 1681 3103 1420 2742 
Q 1159 2381 1159 1747 
Q 1159 1113 1420 752 
Q 1681 391 2138 391 
Q 2594 391 2855 752 
Q 3116 1113 3116 1747 
z
M 1159 2969 
Q 1341 3281 1617 3432 
Q 1894 3584 2278 3584 
Q 2916 3584 3314 3078 
Q 3713 2572 3713 1747 
Q 3713 922 3314 415 
Q 2916 -91 2278 -91 
Q 1894 -91 1617 61 
Q 1341 213 1159 525 
L 1159 0 
L 581 0 
L 581 4863 
L 1159 4863 
L 1159 2969 
z
" transform="scale(0.015625)"/>
      <path id="DejaVuSans-39" d="M 703 97 
L 703 672 
Q 941 559 1184 500 
Q 1428 441 1663 441 
Q 2288 441 2617 861 
Q 2947 1281 2994 2138 
Q 2813 1869 2534 1725 
Q 2256 1581 1919 1581 
Q 1219 1581 811 2004 
Q 403 2428 403 3163 
Q 403 3881 828 4315 
Q 1253 4750 1959 4750 
Q 2769 4750 3195 4129 
Q 3622 3509 3622 2328 
Q 3622 1225 3098 567 
Q 2575 -91 1691 -91 
Q 1453 -91 1209 -44 
Q 966 3 703 97 
z
M 1959 2075 
Q 2384 2075 2632 2365 
Q 2881 2656 2881 3163 
Q 2881 3666 2632 3958 
Q 2384 4250 1959 4250 
Q 1534 4250 1286 3958 
Q 1038 3666 1038 3163 
Q 1038 2656 1286 2365 
Q 1534 2075 1959 2075 
z
" transform="scale(0.015625)"/>
     </defs>
     <use xlink:href="#DejaVuSans-62"/>
     <use xlink:href="#DejaVuSans-65" x="63.476562"/>
     <use xlink:href="#DejaVuSans-73" x="125"/>
     <use xlink:href="#DejaVuSans-74" x="177.099609"/>
     <use xlink:href="#DejaVuSans-20" x="216.308594"/>
     <use xlink:href="#DejaVuSans-32" x="248.095703"/>
     <use xlink:href="#DejaVuSans-30" x="311.71875"/>
     <use xlink:href="#DejaVuSans-30" x="375.341797"/>
     <use xlink:href="#DejaVuSans-39" x="438.964844"/>
    </g>
   </g>
   <g id="text_18">
    <!-- bbob f1-f5, 40-D -->
    <g transform="translate(60.632064 17.582726) scale(0.102 -0.102)">
     <defs>
      <path id="DejaVuSans-35" d="M 691 4666 
L 3169 4666 
L 3169 4134 
L 1269 4134 
L 1269 2991 
Q 1406 3038 1543 3061 
Q 1681 3084 1819 3084 
Q 2600 3084 3056 2656 
Q 3513 2228 3513 1497 
Q 3513 744 3044 326 
Q 2575 -91 1722 -91 
Q 1428 -91 1123 -41 
Q 819 9 494 109 
L 494 744 
Q 775 591 1075 516 
Q 1375 441 1709 441 
Q 2250 441 2565 725 
Q 2881 1009 2881 1497 
Q 2881 1984 2565 2268 
Q 2250 2553 1709 2553 
Q 1456 2553 1204 2497 
Q 953 2441 691 2322 
L 691 4666 
z
" transform="scale(0.015625)"/>
     </defs>
     <use xlink:href="#DejaVuSans-62"/>
     <use xlink:href="#DejaVuSans-62" x="63.476562"/>
     <use xlink:href="#DejaVuSans-6f" x="126.953125"/>
     <use xlink:href="#DejaVuSans-62" x="188.134766"/>
     <use xlink:href="#DejaVuSans-20" x="251.611328"/>
     <use xlink:href="#DejaVuSans-66" x="283.398438"/>
     <use xlink:href="#DejaVuSans-31" x="318.603516"/>
     <use xlink:href="#DejaVuSans-2d" x="382.226562"/>
     <use xlink:href="#DejaVuSans-66" x="418.310547"/>
     <use xlink:href="#DejaVuSans-35" x="453.515625"/>
     <use xlink:href="#DejaVuSans-2c" x="517.138672"/>
     <use xlink:href="#DejaVuSans-20" x="548.925781"/>
     <use xlink:href="#DejaVuSans-34" x="580.712891"/>
     <use xlink:href="#DejaVuSans-30" x="644.335938"/>
     <use xlink:href="#DejaVuSans-2d" x="707.958984"/>
     <use xlink:href="#DejaVuSans-44" x="744.042969"/>
    </g>
    <!-- 51 targets: 100..1e-08 -->
    <g transform="translate(60.632064 29.004495) scale(0.102 -0.102)">
     <defs>
      <path id="DejaVuSans-3a" d="M 750 794 
L 1409 794 
L 1409 0 
L 750 0 
L 750 794 
z
M 750 3309 
L 1409 3309 
L 1409 2516 
L 750 2516 
L 750 3309 
z
" transform="scale(0.015625)"/>
     </defs>
     <use xlink:href="#DejaVuSans-35"/>
     <use xlink:href="#DejaVuSans-31" x="63.623047"/>
     <use xlink:href="#DejaVuSans-20" x="127.246094"/>
     <use xlink:href="#DejaVuSans-74" x="159.033203"/>
     <use xlink:href="#DejaVuSans-61" x="198.242188"/>
     <use xlink:href="#DejaVuSans-72" x="259.521484"/>
     <use xlink:href="#DejaVuSans-67" x="298.884766"/>
     <use xlink:href="#DejaVuSans-65" x="362.361328"/>
     <use xlink:href="#DejaVuSans-74" x="423.884766"/>
     <use xlink:href="#DejaVuSans-73" x="463.09375"/>
     <use xlink:href="#DejaVuSans-3a" x="515.193359"/>
     <use xlink:href="#DejaVuSans-20" x="548.884766"/>
     <use xlink:href="#DejaVuSans-31" x="580.671875"/>
     <use xlink:href="#DejaVuSans-30" x="644.294922"/>
     <use xlink:href="#DejaVuSans-30" x="707.917969"/>
     <use xlink:href="#DejaVuSans-2e" x="771.541016"/>
     <use xlink:href="#DejaVuSans-2e" x="803.328125"/>
     <use xlink:href="#DejaVuSans-31" x="835.115234"/>
     <use xlink:href="#DejaVuSans-65" x="898.738281"/>
     <use xlink:href="#DejaVuSans-2d" x="960.261719"/>
     <use xlink:href="#DejaVuSans-30" x="996.345703"/>
     <use xlink:href="#DejaVuSans-38" x="1059.96875"/>
    </g>
    <!-- 15 instances -->
    <g transform="translate(60.632064 40.426264) scale(0.102 -0.102)">
     <use xlink:href="#DejaVuSans-31"/>
     <use xlink:href="#DejaVuSans-35" x="63.623047"/>
     <use xlink:href="#DejaVuSans-20" x="127.246094"/>
     <use xlink:href="#DejaVuSans-69" x="159.033203"/>
     <use xlink:href="#DejaVuSans-6e" x="186.816406"/>
     <use xlink:href="#DejaVuSans-73" x="250.195312"/>
     <use xlink:href="#DejaVuSans-74" x="302.294922"/>
     <use xlink:href="#DejaVuSans-61" x="341.503906"/>
     <use xlink:href="#DejaVuSans-6e" x="402.783203"/>
     <use xlink:href="#DejaVuSans-63" x="466.162109"/>
     <use xlink:href="#DejaVuSans-65" x="521.142578"/>
     <use xlink:href="#DejaVuSans-73" x="582.666016"/>
    </g>
   </g>
   <g id="text_19">
    <!-- v2.6 -->
    <g style="fill: #808080" transform="translate(198.292262 293.943992) scale(0.1 -0.1)">
     <use xlink:href="#DejaVuSans-76"/>
     <use xlink:href="#DejaVuSans-32" x="59.179688"/>
     <use xlink:href="#DejaVuSans-2e" x="122.802734"/>
     <use xlink:href="#DejaVuSans-36" x="154.589844"/>
    </g>
   </g>
  </g>
 </g>
 <defs>
  <clipPath id="p0abbe7dbc1">
   <rect x="57.6" y="6.912" width="303.2064" height="292.032"/>
  </clipPath>
 </defs>
</svg>
