<?xml version="1.0" encoding="utf-8" standalone="no"?>
<!DOCTYPE svg PUBLIC "-//W3C//DTD SVG 1.1//EN"
  "http://www.w3.org/Graphics/SVG/1.1/DTD/svg11.dtd">
<svg xmlns:xlink="http://www.w3.org/1999/xlink" width="460.8pt" height="345.6pt" viewBox="0 0 460.8 345.6" xmlns="http://www.w3.org/2000/svg" version="1.1">
 <metadata>
  <rdf:RDF xmlns:dc="http://purl.org/dc/elements/1.1/" xmlns:cc="http://creativecommons.org/ns#" xmlns:rdf="http://www.w3.org/1999/02/22-rdf-syntax-ns#">
   <cc:Work>
    <dc:type rdf:resource="http://purl.org/dc/dcmitype/StillImage"/>
    <dc:date>2023-01-31T20:54:46.357347</dc:date>
    <dc:format>image/svg+xml</dc:format>
    <dc:creator>
     <cc:Agent>
      <dc:title>Matplotlib v3.6.2, https://matplotlib.org/</dc:title>
     </cc:Agent>
    </dc:creator>
   </cc:Work>
  </rdf:RDF>
 </metadata>
 <defs>
  <style type="text/css">*{stroke-linejoin: round; stroke-linecap: butt}</style>
 </defs>
 <g id="figure_1">
  <g id="patch_1">
   <path d="M 0 345.6 
L 460.8 345.6 
L 460.8 0 
L 0 0 
z
" style="fill: #ffffff"/>
  </g>
  <g id="axes_1">
   <g id="patch_2">
    <path d="M 22.78 315.44 
L 453.192 315.44 
L 453.192 25.56 
L 22.78 25.56 
z
" style="fill: #ffffff"/>
   </g>
   <g id="line2d_1">
    <path d="M 36.868282 292.997134 
L 91.085051 294.69256 
L 159.390103 296.209171 
L 252.074282 296.821795 
L 344.758461 297.792577 
L 437.442641 298.303678 
" clip-path="url(#p68a1d40a19)" style="fill: none; stroke: #f5deb3; stroke-width: 10; stroke-linecap: square"/>
    <defs>
     <path id="md05d5ab8fa" d="M 0 17.67767 
L 10.606602 0 
L 0 -17.67767 
L -10.606602 0 
z
" style="stroke: #f5deb3; stroke-linejoin: miter"/>
    </defs>
    <g clip-path="url(#p68a1d40a19)">
     <use xlink:href="#md05d5ab8fa" x="36.868282" y="292.997134" style="fill: #f5deb3; stroke: #f5deb3; stroke-linejoin: miter"/>
     <use xlink:href="#md05d5ab8fa" x="91.085051" y="294.69256" style="fill: #f5deb3; stroke: #f5deb3; stroke-linejoin: miter"/>
     <use xlink:href="#md05d5ab8fa" x="159.390103" y="296.209171" style="fill: #f5deb3; stroke: #f5deb3; stroke-linejoin: miter"/>
     <use xlink:href="#md05d5ab8fa" x="252.074282" y="296.821795" style="fill: #f5deb3; stroke: #f5deb3; stroke-linejoin: miter"/>
     <use xlink:href="#md05d5ab8fa" x="344.758461" y="297.792577" style="fill: #f5deb3; stroke: #f5deb3; stroke-linejoin: miter"/>
     <use xlink:href="#md05d5ab8fa" x="437.442641" y="298.303678" style="fill: #f5deb3; stroke: #f5deb3; stroke-linejoin: miter"/>
    </g>
   </g>
   <g id="matplotlib.axis_1">
    <g id="xtick_1">
     <g id="line2d_2">
      <defs>
       <path id="m1078686bd0" d="M 0 0 
L 0 3.5 
" style="stroke: #000000; stroke-width: 0.8"/>
      </defs>
      <g>
       <use xlink:href="#m1078686bd0" x="36.868282" y="315.44" style="stroke: #000000; stroke-width: 0.8"/>
      </g>
     </g>
     <g id="text_1">
      <!-- 2 -->
      <g transform="translate(30.505782 337.636875) scale(0.2 -0.2)">
       <defs>
        <path id="DejaVuSans-32" d="M 1228 531 
L 3431 531 
L 3431 0 
L 469 0 
L 469 531 
Q 828 903 1448 1529 
Q 2069 2156 2228 2338 
Q 2531 2678 2651 2914 
Q 2772 3150 2772 3378 
Q 2772 3750 2511 3984 
Q 2250 4219 1831 4219 
Q 1534 4219 1204 4116 
Q 875 4013 500 3803 
L 500 4441 
Q 881 4594 1212 4672 
Q 1544 4750 1819 4750 
Q 2544 4750 2975 4387 
Q 3406 4025 3406 3419 
Q 3406 3131 3298 2873 
Q 3191 2616 2906 2266 
Q 2828 2175 2409 1742 
Q 1991 1309 1228 531 
z
" transform="scale(0.015625)"/>
       </defs>
       <use xlink:href="#DejaVuSans-32"/>
      </g>
     </g>
    </g>
    <g id="xtick_2">
     <g id="line2d_3">
      <g>
       <use xlink:href="#m1078686bd0" x="91.085051" y="315.44" style="stroke: #000000; stroke-width: 0.8"/>
      </g>
     </g>
     <g id="text_2">
      <!-- 3 -->
      <g transform="translate(84.722551 337.636875) scale(0.2 -0.2)">
       <defs>
        <path id="DejaVuSans-33" d="M 2597 2516 
Q 3050 2419 3304 2112 
Q 3559 1806 3559 1356 
Q 3559 666 3084 287 
Q 2609 -91 1734 -91 
Q 1441 -91 1130 -33 
Q 819 25 488 141 
L 488 750 
Q 750 597 1062 519 
Q 1375 441 1716 441 
Q 2309 441 2620 675 
Q 2931 909 2931 1356 
Q 2931 1769 2642 2001 
Q 2353 2234 1838 2234 
L 1294 2234 
L 1294 2753 
L 1863 2753 
Q 2328 2753 2575 2939 
Q 2822 3125 2822 3475 
Q 2822 3834 2567 4026 
Q 2313 4219 1838 4219 
Q 1578 4219 1281 4162 
Q 984 4106 628 3988 
L 628 4550 
Q 988 4650 1302 4700 
Q 1616 4750 1894 4750 
Q 2613 4750 3031 4423 
Q 3450 4097 3450 3541 
Q 3450 3153 3228 2886 
Q 3006 2619 2597 2516 
z
" transform="scale(0.015625)"/>
       </defs>
       <use xlink:href="#DejaVuSans-33"/>
      </g>
     </g>
    </g>
    <g id="xtick_3">
     <g id="line2d_4">
      <g>
       <use xlink:href="#m1078686bd0" x="159.390103" y="315.44" style="stroke: #000000; stroke-width: 0.8"/>
      </g>
     </g>
     <g id="text_3">
      <!-- 5 -->
      <g transform="translate(153.027603 337.636875) scale(0.2 -0.2)">
       <defs>
        <path id="DejaVuSans-35" d="M 691 4666 
L 3169 4666 
L 3169 4134 
L 1269 4134 
L 1269 2991 
Q 1406 3038 1543 3061 
Q 1681 3084 1819 3084 
Q 2600 3084 3056 2656 
Q 3513 2228 3513 1497 
Q 3513 744 3044 326 
Q 2575 -91 1722 -91 
Q 1428 -91 1123 -41 
Q 819 9 494 109 
L 494 744 
Q 775 591 1075 516 
Q 1375 441 1709 441 
Q 2250 441 2565 725 
Q 2881 1009 2881 1497 
Q 2881 1984 2565 2268 
Q 2250 2553 1709 2553 
Q 1456 2553 1204 2497 
Q 953 2441 691 2322 
L 691 4666 
z
" transform="scale(0.015625)"/>
       </defs>
       <use xlink:href="#DejaVuSans-35"/>
      </g>
     </g>
    </g>
    <g id="xtick_4">
     <g id="line2d_5">
      <g>
       <use xlink:href="#m1078686bd0" x="252.074282" y="315.44" style="stroke: #000000; stroke-width: 0.8"/>
      </g>
     </g>
     <g id="text_4">
      <!-- 10 -->
      <g transform="translate(239.349282 337.636875) scale(0.2 -0.2)">
       <defs>
        <path id="DejaVuSans-31" d="M 794 531 
L 1825 531 
L 1825 4091 
L 703 3866 
L 703 4441 
L 1819 4666 
L 2450 4666 
L 2450 531 
L 3481 531 
L 3481 0 
L 794 0 
L 794 531 
z
" transform="scale(0.015625)"/>
        <path id="DejaVuSans-30" d="M 2034 4250 
Q 1547 4250 1301 3770 
Q 1056 3291 1056 2328 
Q 1056 1369 1301 889 
Q 1547 409 2034 409 
Q 2525 409 2770 889 
Q 3016 1369 3016 2328 
Q 3016 3291 2770 3770 
Q 2525 4250 2034 4250 
z
M 2034 4750 
Q 2819 4750 3233 4129 
Q 3647 3509 3647 2328 
Q 3647 1150 3233 529 
Q 2819 -91 2034 -91 
Q 1250 -91 836 529 
Q 422 1150 422 2328 
Q 422 3509 836 4129 
Q 1250 4750 2034 4750 
z
" transform="scale(0.015625)"/>
       </defs>
       <use xlink:href="#DejaVuSans-31"/>
       <use xlink:href="#DejaVuSans-30" x="63.623047"/>
      </g>
     </g>
    </g>
    <g id="xtick_5">
     <g id="line2d_6">
      <g>
       <use xlink:href="#m1078686bd0" x="344.758461" y="315.44" style="stroke: #000000; stroke-width: 0.8"/>
      </g>
     </g>
     <g id="text_5">
      <!-- 20 -->
      <g transform="translate(332.033461 337.636875) scale(0.2 -0.2)">
       <use xlink:href="#DejaVuSans-32"/>
       <use xlink:href="#DejaVuSans-30" x="63.623047"/>
      </g>
     </g>
    </g>
    <g id="xtick_6">
     <g id="line2d_7">
      <g>
       <use xlink:href="#m1078686bd0" x="437.442641" y="315.44" style="stroke: #000000; stroke-width: 0.8"/>
      </g>
     </g>
     <g id="text_6">
      <!-- 40 -->
      <g transform="translate(424.717641 337.636875) scale(0.2 -0.2)">
       <defs>
        <path id="DejaVuSans-34" d="M 2419 4116 
L 825 1625 
L 2419 1625 
L 2419 4116 
z
M 2253 4666 
L 3047 4666 
L 3047 1625 
L 3713 1625 
L 3713 1100 
L 3047 1100 
L 3047 0 
L 2419 0 
L 2419 1100 
L 313 1100 
L 313 1709 
L 2253 4666 
z
" transform="scale(0.015625)"/>
       </defs>
       <use xlink:href="#DejaVuSans-34"/>
       <use xlink:href="#DejaVuSans-30" x="63.623047"/>
      </g>
     </g>
    </g>
    <g id="xtick_7">
     <g id="line2d_8">
      <defs>
       <path id="m19a5b4201a" d="M 0 0 
L 0 2 
" style="stroke: #000000; stroke-width: 0.6"/>
      </defs>
      <g>
       <use xlink:href="#m19a5b4201a" x="129.552461" y="315.44" style="stroke: #000000; stroke-width: 0.6"/>
      </g>
     </g>
    </g>
    <g id="xtick_8">
     <g id="line2d_9">
      <g>
       <use xlink:href="#m19a5b4201a" x="183.769231" y="315.44" style="stroke: #000000; stroke-width: 0.6"/>
      </g>
     </g>
    </g>
    <g id="xtick_9">
     <g id="line2d_10">
      <g>
       <use xlink:href="#m19a5b4201a" x="204.38149" y="315.44" style="stroke: #000000; stroke-width: 0.6"/>
      </g>
     </g>
    </g>
    <g id="xtick_10">
     <g id="line2d_11">
      <g>
       <use xlink:href="#m19a5b4201a" x="222.236641" y="315.44" style="stroke: #000000; stroke-width: 0.6"/>
      </g>
     </g>
    </g>
    <g id="xtick_11">
     <g id="line2d_12">
      <g>
       <use xlink:href="#m19a5b4201a" x="237.986" y="315.44" style="stroke: #000000; stroke-width: 0.6"/>
      </g>
     </g>
    </g>
    <g id="xtick_12">
     <g id="line2d_13">
      <g>
       <use xlink:href="#m19a5b4201a" x="398.975231" y="315.44" style="stroke: #000000; stroke-width: 0.6"/>
      </g>
     </g>
    </g>
   </g>
   <g id="matplotlib.axis_2">
    <g id="ytick_1">
     <g id="line2d_14">
      <path d="M 22.78 275.666564 
L 453.192 275.666564 
" clip-path="url(#p68a1d40a19)" style="fill: none; stroke: #b0b0b0; stroke-width: 0.8; stroke-linecap: square"/>
     </g>
     <g id="line2d_15">
      <defs>
       <path id="m8442222b62" d="M 0 0 
L -3.5 0 
" style="stroke: #000000; stroke-width: 0.8"/>
      </defs>
      <g>
       <use xlink:href="#m8442222b62" x="22.78" y="275.666564" style="stroke: #000000; stroke-width: 0.8"/>
      </g>
     </g>
     <g id="text_7">
      <!-- 1 -->
      <g transform="translate(3.055 283.265001) scale(0.2 -0.2)">
       <use xlink:href="#DejaVuSans-31"/>
      </g>
     </g>
    </g>
    <g id="ytick_2">
     <g id="line2d_16">
      <path d="M 22.78 209.377503 
L 453.192 209.377503 
" clip-path="url(#p68a1d40a19)" style="fill: none; stroke: #b0b0b0; stroke-width: 0.8; stroke-linecap: square"/>
     </g>
     <g id="line2d_17">
      <g>
       <use xlink:href="#m8442222b62" x="22.78" y="209.377503" style="stroke: #000000; stroke-width: 0.8"/>
      </g>
     </g>
     <g id="text_8">
      <!-- 3 -->
      <g transform="translate(3.055 216.975941) scale(0.2 -0.2)">
       <use xlink:href="#DejaVuSans-33"/>
      </g>
     </g>
    </g>
    <g id="ytick_3">
     <g id="line2d_18">
      <path d="M 22.78 143.088443 
L 453.192 143.088443 
" clip-path="url(#p68a1d40a19)" style="fill: none; stroke: #b0b0b0; stroke-width: 0.8; stroke-linecap: square"/>
     </g>
     <g id="line2d_19">
      <g>
       <use xlink:href="#m8442222b62" x="22.78" y="143.088443" style="stroke: #000000; stroke-width: 0.8"/>
      </g>
     </g>
     <g id="text_9">
      <!-- 5 -->
      <g transform="translate(3.055 150.686881) scale(0.2 -0.2)">
       <use xlink:href="#DejaVuSans-35"/>
      </g>
     </g>
    </g>
    <g id="ytick_4">
     <g id="line2d_20">
      <path d="M 22.78 76.799383 
L 453.192 76.799383 
" clip-path="url(#p68a1d40a19)" style="fill: none; stroke: #b0b0b0; stroke-width: 0.8; stroke-linecap: square"/>
     </g>
     <g id="line2d_21">
      <g>
       <use xlink:href="#m8442222b62" x="22.78" y="76.799383" style="stroke: #000000; stroke-width: 0.8"/>
      </g>
     </g>
     <g id="text_10">
      <!-- 7 -->
      <g transform="translate(3.055 84.39782) scale(0.2 -0.2)">
       <defs>
        <path id="DejaVuSans-37" d="M 525 4666 
L 3525 4666 
L 3525 4397 
L 1831 0 
L 1172 0 
L 2766 4134 
L 525 4134 
L 525 4666 
z
" transform="scale(0.015625)"/>
       </defs>
       <use xlink:href="#DejaVuSans-37"/>
      </g>
     </g>
    </g>
   </g>
   <g id="line2d_22">
    <path d="M 159.390103 176.678642 
L 252.074282 182.895379 
" clip-path="url(#p68a1d40a19)" style="fill: none; stroke: #000080; stroke-width: 4; stroke-linecap: square"/>
    <defs>
     <path id="mf9e9a56d11" d="M 0 7.5 
C 1.989023 7.5 3.896849 6.709753 5.303301 5.303301 
C 6.709753 3.896849 7.5 1.989023 7.5 0 
C 7.5 -1.989023 6.709753 -3.896849 5.303301 -5.303301 
C 3.896849 -6.709753 1.989023 -7.5 0 -7.5 
C -1.989023 -7.5 -3.896849 -6.709753 -5.303301 -5.303301 
C -6.709753 -3.896849 -7.5 -1.989023 -7.5 0 
C -7.5 1.989023 -6.709753 3.896849 -5.303301 5.303301 
C -3.896849 6.709753 -1.989023 7.5 0 7.5 
z
" style="stroke: #000080; stroke-width: 3"/>
    </defs>
    <g clip-path="url(#p68a1d40a19)">
     <use xlink:href="#mf9e9a56d11" x="159.390103" y="176.678642" style="fill-opacity: 0; stroke: #000080; stroke-width: 3"/>
     <use xlink:href="#mf9e9a56d11" x="252.074282" y="182.895379" style="fill-opacity: 0; stroke: #000080; stroke-width: 3"/>
    </g>
   </g>
   <g id="line2d_23">
    <path d="M 252.074282 182.895379 
L 344.758461 190.574166 
" clip-path="url(#p68a1d40a19)" style="fill: none; stroke: #000080; stroke-width: 4; stroke-linecap: square"/>
    <g clip-path="url(#p68a1d40a19)">
     <use xlink:href="#mf9e9a56d11" x="252.074282" y="182.895379" style="fill-opacity: 0; stroke: #000080; stroke-width: 3"/>
     <use xlink:href="#mf9e9a56d11" x="344.758461" y="190.574166" style="fill-opacity: 0; stroke: #000080; stroke-width: 3"/>
    </g>
   </g>
   <g id="line2d_24">
    <path d="M 344.758461 190.574166 
L 437.442641 199.217494 
" clip-path="url(#p68a1d40a19)" style="fill: none; stroke: #000080; stroke-width: 4; stroke-linecap: square"/>
    <g clip-path="url(#p68a1d40a19)">
     <use xlink:href="#mf9e9a56d11" x="344.758461" y="190.574166" style="fill-opacity: 0; stroke: #000080; stroke-width: 3"/>
     <use xlink:href="#mf9e9a56d11" x="437.442641" y="199.217494" style="fill-opacity: 0; stroke: #000080; stroke-width: 3"/>
    </g>
   </g>
   <g id="line2d_25">
    <path d="M 437.442641 199.217494 
" clip-path="url(#p68a1d40a19)" style="fill: none; stroke: #000080; stroke-width: 4; stroke-linecap: square"/>
    <g clip-path="url(#p68a1d40a19)">
     <use xlink:href="#mf9e9a56d11" x="437.442641" y="199.217494" style="fill-opacity: 0; stroke: #000080; stroke-width: 3"/>
    </g>
   </g>
   <g id="line2d_26"/>
   <g id="line2d_27">
    <defs>
     <path id="m1ff675726d" d="M 0 10 
C 2.652031 10 5.195799 8.946337 7.071068 7.071068 
C 8.946337 5.195799 10 2.652031 10 0 
C 10 -2.652031 8.946337 -5.195799 7.071068 -7.071068 
C 5.195799 -8.946337 2.652031 -10 0 -10 
C -2.652031 -10 -5.195799 -8.946337 -7.071068 -7.071068 
C -8.946337 -5.195799 -10 -2.652031 -10 0 
C -10 2.652031 -8.946337 5.195799 -7.071068 7.071068 
C -5.195799 8.946337 -2.652031 10 0 10 
z
" style="stroke: #000080"/>
    </defs>
    <g clip-path="url(#p68a1d40a19)">
     <use xlink:href="#m1ff675726d" x="36.868282" y="176.159748" style="fill-opacity: 0; stroke: #000080"/>
     <use xlink:href="#m1ff675726d" x="91.085051" y="176.088793" style="fill-opacity: 0; stroke: #000080"/>
     <use xlink:href="#m1ff675726d" x="159.390103" y="176.203638" style="fill-opacity: 0; stroke: #000080"/>
     <use xlink:href="#m1ff675726d" x="252.074282" y="181.835493" style="fill-opacity: 0; stroke: #000080"/>
     <use xlink:href="#m1ff675726d" x="344.758461" y="189.829083" style="fill-opacity: 0; stroke: #000080"/>
     <use xlink:href="#m1ff675726d" x="437.442641" y="198.356142" style="fill-opacity: 0; stroke: #000080"/>
    </g>
   </g>
   <g id="line2d_28">
    <path d="M 36.868282 38.547794 
" clip-path="url(#p68a1d40a19)" style="fill: none; stroke: #ff00ff; stroke-width: 3.666667; stroke-linecap: square"/>
    <defs>
     <path id="m3a490c8b6d" d="M 0 9.192388 
L 5.515433 0 
L 0 -9.192388 
L -5.515433 0 
z
" style="stroke: #ff00ff; stroke-width: 2.5; stroke-linejoin: miter"/>
    </defs>
    <g clip-path="url(#p68a1d40a19)">
     <use xlink:href="#m3a490c8b6d" x="36.868282" y="38.547794" style="fill-opacity: 0; stroke: #ff00ff; stroke-width: 2.5; stroke-linejoin: miter"/>
    </g>
   </g>
   <g id="line2d_29"/>
   <g id="line2d_30">
    <defs>
     <path id="mf79fa4566a" d="M 0 14.142136 
L 8.485281 0 
L 0 -14.142136 
L -8.485281 0 
z
" style="stroke: #ff00ff; stroke-linejoin: miter"/>
    </defs>
    <g clip-path="url(#p68a1d40a19)">
     <use xlink:href="#mf79fa4566a" x="36.868282" y="76.799383" style="fill-opacity: 0; stroke: #ff00ff; stroke-linejoin: miter"/>
     <use xlink:href="#mf79fa4566a" x="91.085051" y="76.799383" style="fill-opacity: 0; stroke: #ff00ff; stroke-linejoin: miter"/>
     <use xlink:href="#mf79fa4566a" x="159.390103" y="76.799383" style="fill-opacity: 0; stroke: #ff00ff; stroke-linejoin: miter"/>
     <use xlink:href="#mf79fa4566a" x="252.074282" y="76.799383" style="fill-opacity: 0; stroke: #ff00ff; stroke-linejoin: miter"/>
     <use xlink:href="#mf79fa4566a" x="344.758461" y="76.799383" style="fill-opacity: 0; stroke: #ff00ff; stroke-linejoin: miter"/>
     <use xlink:href="#mf79fa4566a" x="437.442641" y="76.799383" style="fill-opacity: 0; stroke: #ff00ff; stroke-linejoin: miter"/>
    </g>
   </g>
   <g id="line2d_31">
    <path d="M 36.868282 281.94147 
L 91.085051 283.562889 
" clip-path="url(#p68a1d40a19)" style="fill: none; stroke: #ff7500; stroke-width: 3.333333; stroke-linecap: square"/>
    <defs>
     <path id="mf45f784a78" d="M 0 -8 
L -1.796112 -2.472136 
L -7.608452 -2.472136 
L -2.90617 0.944272 
L -4.702282 6.472136 
L -0 3.055728 
L 4.702282 6.472136 
L 2.90617 0.944272 
L 7.608452 -2.472136 
L 1.796112 -2.472136 
z
" style="stroke: #ff7500; stroke-width: 2; stroke-linejoin: bevel"/>
    </defs>
    <g clip-path="url(#p68a1d40a19)">
     <use xlink:href="#mf45f784a78" x="36.868282" y="281.94147" style="fill-opacity: 0; stroke: #ff7500; stroke-width: 2; stroke-linejoin: bevel"/>
     <use xlink:href="#mf45f784a78" x="91.085051" y="283.562889" style="fill-opacity: 0; stroke: #ff7500; stroke-width: 2; stroke-linejoin: bevel"/>
    </g>
   </g>
   <g id="line2d_32">
    <path d="M 91.085051 283.562889 
L 159.390103 285.190654 
" clip-path="url(#p68a1d40a19)" style="fill: none; stroke: #ff7500; stroke-width: 3.333333; stroke-linecap: square"/>
    <g clip-path="url(#p68a1d40a19)">
     <use xlink:href="#mf45f784a78" x="91.085051" y="283.562889" style="fill-opacity: 0; stroke: #ff7500; stroke-width: 2; stroke-linejoin: bevel"/>
     <use xlink:href="#mf45f784a78" x="159.390103" y="285.190654" style="fill-opacity: 0; stroke: #ff7500; stroke-width: 2; stroke-linejoin: bevel"/>
    </g>
   </g>
   <g id="line2d_33">
    <path d="M 159.390103 285.190654 
L 252.074282 287.615615 
" clip-path="url(#p68a1d40a19)" style="fill: none; stroke: #ff7500; stroke-width: 3.333333; stroke-linecap: square"/>
    <g clip-path="url(#p68a1d40a19)">
     <use xlink:href="#mf45f784a78" x="159.390103" y="285.190654" style="fill-opacity: 0; stroke: #ff7500; stroke-width: 2; stroke-linejoin: bevel"/>
     <use xlink:href="#mf45f784a78" x="252.074282" y="287.615615" style="fill-opacity: 0; stroke: #ff7500; stroke-width: 2; stroke-linejoin: bevel"/>
    </g>
   </g>
   <g id="line2d_34">
    <path d="M 252.074282 287.615615 
L 344.758461 291.195475 
" clip-path="url(#p68a1d40a19)" style="fill: none; stroke: #ff7500; stroke-width: 3.333333; stroke-linecap: square"/>
    <g clip-path="url(#p68a1d40a19)">
     <use xlink:href="#mf45f784a78" x="252.074282" y="287.615615" style="fill-opacity: 0; stroke: #ff7500; stroke-width: 2; stroke-linejoin: bevel"/>
     <use xlink:href="#mf45f784a78" x="344.758461" y="291.195475" style="fill-opacity: 0; stroke: #ff7500; stroke-width: 2; stroke-linejoin: bevel"/>
    </g>
   </g>
   <g id="line2d_35">
    <path d="M 344.758461 291.195475 
L 437.442641 285.387265 
" clip-path="url(#p68a1d40a19)" style="fill: none; stroke: #ff7500; stroke-width: 3.333333; stroke-linecap: square"/>
    <g clip-path="url(#p68a1d40a19)">
     <use xlink:href="#mf45f784a78" x="344.758461" y="291.195475" style="fill-opacity: 0; stroke: #ff7500; stroke-width: 2; stroke-linejoin: bevel"/>
     <use xlink:href="#mf45f784a78" x="437.442641" y="285.387265" style="fill-opacity: 0; stroke: #ff7500; stroke-width: 2; stroke-linejoin: bevel"/>
    </g>
   </g>
   <g id="line2d_36">
    <path d="M 437.442641 285.387265 
" clip-path="url(#p68a1d40a19)" style="fill: none; stroke: #ff7500; stroke-width: 3.333333; stroke-linecap: square"/>
    <g clip-path="url(#p68a1d40a19)">
     <use xlink:href="#mf45f784a78" x="437.442641" y="285.387265" style="fill-opacity: 0; stroke: #ff7500; stroke-width: 2; stroke-linejoin: bevel"/>
    </g>
   </g>
   <g id="line2d_37"/>
   <g id="line2d_38">
    <defs>
     <path id="m45685ae061" d="M 0 -10 
L -2.24514 -3.09017 
L -9.510565 -3.09017 
L -3.632713 1.18034 
L -5.877853 8.09017 
L -0 3.81966 
L 5.877853 8.09017 
L 3.632713 1.18034 
L 9.510565 -3.09017 
L 2.24514 -3.09017 
z
" style="stroke: #ff7500; stroke-linejoin: bevel"/>
    </defs>
    <g clip-path="url(#p68a1d40a19)">
     <use xlink:href="#m45685ae061" x="36.868282" y="280.800716" style="fill-opacity: 0; stroke: #ff7500; stroke-linejoin: bevel"/>
     <use xlink:href="#m45685ae061" x="91.085051" y="280.131085" style="fill-opacity: 0; stroke: #ff7500; stroke-linejoin: bevel"/>
     <use xlink:href="#m45685ae061" x="159.390103" y="283.019636" style="fill-opacity: 0; stroke: #ff7500; stroke-linejoin: bevel"/>
     <use xlink:href="#m45685ae061" x="252.074282" y="285.644062" style="fill-opacity: 0; stroke: #ff7500; stroke-linejoin: bevel"/>
     <use xlink:href="#m45685ae061" x="344.758461" y="291.195475" style="fill-opacity: 0; stroke: #ff7500; stroke-linejoin: bevel"/>
     <use xlink:href="#m45685ae061" x="437.442641" y="282.203536" style="fill-opacity: 0; stroke: #ff7500; stroke-linejoin: bevel"/>
    </g>
   </g>
   <g id="line2d_39">
    <path d="M 36.868282 238.646124 
L 91.085051 237.603486 
" clip-path="url(#p68a1d40a19)" style="fill: none; stroke: #6495ed; stroke-width: 3; stroke-linecap: square"/>
    <defs>
     <path id="m3327635ca0" d="M -0 7 
L 7 -7 
L -7 -7 
z
" style="stroke: #6495ed; stroke-width: 1.5; stroke-linejoin: miter"/>
    </defs>
    <g clip-path="url(#p68a1d40a19)">
     <use xlink:href="#m3327635ca0" x="36.868282" y="238.646124" style="fill-opacity: 0; stroke: #6495ed; stroke-width: 1.5; stroke-linejoin: miter"/>
     <use xlink:href="#m3327635ca0" x="91.085051" y="237.603486" style="fill-opacity: 0; stroke: #6495ed; stroke-width: 1.5; stroke-linejoin: miter"/>
    </g>
   </g>
   <g id="line2d_40">
    <path d="M 91.085051 237.603486 
L 159.390103 237.151083 
" clip-path="url(#p68a1d40a19)" style="fill: none; stroke: #6495ed; stroke-width: 3; stroke-linecap: square"/>
    <g clip-path="url(#p68a1d40a19)">
     <use xlink:href="#m3327635ca0" x="91.085051" y="237.603486" style="fill-opacity: 0; stroke: #6495ed; stroke-width: 1.5; stroke-linejoin: miter"/>
     <use xlink:href="#m3327635ca0" x="159.390103" y="237.151083" style="fill-opacity: 0; stroke: #6495ed; stroke-width: 1.5; stroke-linejoin: miter"/>
    </g>
   </g>
   <g id="line2d_41">
    <path d="M 159.390103 237.151083 
L 252.074282 236.958764 
" clip-path="url(#p68a1d40a19)" style="fill: none; stroke: #6495ed; stroke-width: 3; stroke-linecap: square"/>
    <g clip-path="url(#p68a1d40a19)">
     <use xlink:href="#m3327635ca0" x="159.390103" y="237.151083" style="fill-opacity: 0; stroke: #6495ed; stroke-width: 1.5; stroke-linejoin: miter"/>
     <use xlink:href="#m3327635ca0" x="252.074282" y="236.958764" style="fill-opacity: 0; stroke: #6495ed; stroke-width: 1.5; stroke-linejoin: miter"/>
    </g>
   </g>
   <g id="line2d_42">
    <path d="M 252.074282 236.958764 
L 344.758461 237.918527 
" clip-path="url(#p68a1d40a19)" style="fill: none; stroke: #6495ed; stroke-width: 3; stroke-linecap: square"/>
    <g clip-path="url(#p68a1d40a19)">
     <use xlink:href="#m3327635ca0" x="252.074282" y="236.958764" style="fill-opacity: 0; stroke: #6495ed; stroke-width: 1.5; stroke-linejoin: miter"/>
     <use xlink:href="#m3327635ca0" x="344.758461" y="237.918527" style="fill-opacity: 0; stroke: #6495ed; stroke-width: 1.5; stroke-linejoin: miter"/>
    </g>
   </g>
   <g id="line2d_43">
    <path d="M 344.758461 237.918527 
L 437.442641 238.499701 
" clip-path="url(#p68a1d40a19)" style="fill: none; stroke: #6495ed; stroke-width: 3; stroke-linecap: square"/>
    <g clip-path="url(#p68a1d40a19)">
     <use xlink:href="#m3327635ca0" x="344.758461" y="237.918527" style="fill-opacity: 0; stroke: #6495ed; stroke-width: 1.5; stroke-linejoin: miter"/>
     <use xlink:href="#m3327635ca0" x="437.442641" y="238.499701" style="fill-opacity: 0; stroke: #6495ed; stroke-width: 1.5; stroke-linejoin: miter"/>
    </g>
   </g>
   <g id="line2d_44">
    <path d="M 437.442641 238.499701 
" clip-path="url(#p68a1d40a19)" style="fill: none; stroke: #6495ed; stroke-width: 3; stroke-linecap: square"/>
    <g clip-path="url(#p68a1d40a19)">
     <use xlink:href="#m3327635ca0" x="437.442641" y="238.499701" style="fill-opacity: 0; stroke: #6495ed; stroke-width: 1.5; stroke-linejoin: miter"/>
    </g>
   </g>
   <g id="line2d_45"/>
   <g id="line2d_46">
    <defs>
     <path id="m0516bb6455" d="M -0 10 
L 10 -10 
L -10 -10 
z
" style="stroke: #6495ed; stroke-linejoin: miter"/>
    </defs>
    <g clip-path="url(#p68a1d40a19)">
     <use xlink:href="#m0516bb6455" x="36.868282" y="235.183363" style="fill-opacity: 0; stroke: #6495ed; stroke-linejoin: miter"/>
     <use xlink:href="#m0516bb6455" x="91.085051" y="234.549142" style="fill-opacity: 0; stroke: #6495ed; stroke-linejoin: miter"/>
     <use xlink:href="#m0516bb6455" x="159.390103" y="235.436287" style="fill-opacity: 0; stroke: #6495ed; stroke-linejoin: miter"/>
     <use xlink:href="#m0516bb6455" x="252.074282" y="235.278777" style="fill-opacity: 0; stroke: #6495ed; stroke-linejoin: miter"/>
     <use xlink:href="#m0516bb6455" x="344.758461" y="236.400523" style="fill-opacity: 0; stroke: #6495ed; stroke-linejoin: miter"/>
     <use xlink:href="#m0516bb6455" x="437.442641" y="237.363431" style="fill-opacity: 0; stroke: #6495ed; stroke-linejoin: miter"/>
    </g>
   </g>
   <g id="line2d_47">
    <defs>
     <path id="ma02d30f9fd" d="M 0 -7.5 
L -1.683855 -2.317627 
L -7.132924 -2.317627 
L -2.724534 0.885255 
L -4.408389 6.067627 
L -0 2.864745 
L 4.408389 6.067627 
L 2.724534 0.885255 
L 7.132924 -2.317627 
L 1.683855 -2.317627 
z
" style="stroke: #ff0000; stroke-width: 0.7; stroke-linejoin: bevel"/>
    </defs>
    <g clip-path="url(#p68a1d40a19)">
     <use xlink:href="#ma02d30f9fd" x="36.868282" y="281.94147" style="stroke: #ff0000; stroke-width: 0.7; stroke-linejoin: bevel"/>
     <use xlink:href="#ma02d30f9fd" x="91.085051" y="283.562889" style="stroke: #ff0000; stroke-width: 0.7; stroke-linejoin: bevel"/>
     <use xlink:href="#ma02d30f9fd" x="159.390103" y="285.190654" style="stroke: #ff0000; stroke-width: 0.7; stroke-linejoin: bevel"/>
     <use xlink:href="#ma02d30f9fd" x="252.074282" y="287.615615" style="stroke: #ff0000; stroke-width: 0.7; stroke-linejoin: bevel"/>
     <use xlink:href="#ma02d30f9fd" x="344.758461" y="291.195475" style="stroke: #ff0000; stroke-width: 0.7; stroke-linejoin: bevel"/>
     <use xlink:href="#ma02d30f9fd" x="437.442641" y="285.387265" style="stroke: #ff0000; stroke-width: 0.7; stroke-linejoin: bevel"/>
    </g>
   </g>
   <g id="line2d_48">
    <path d="M -1 346.032163 
L 461.8 296.211514 
" clip-path="url(#p68a1d40a19)" style="fill: none; stroke-dasharray: 0.5,0.825; stroke-dashoffset: 0; stroke: #000000; stroke-width: 0.5"/>
   </g>
   <g id="line2d_49">
    <path d="M -1 279.743103 
L 461.8 229.922454 
" clip-path="url(#p68a1d40a19)" style="fill: none; stroke-dasharray: 0.5,0.825; stroke-dashoffset: 0; stroke: #000000; stroke-width: 0.5"/>
   </g>
   <g id="line2d_50">
    <path d="M -1 213.454043 
L 461.8 163.633394 
" clip-path="url(#p68a1d40a19)" style="fill: none; stroke-dasharray: 0.5,0.825; stroke-dashoffset: 0; stroke: #000000; stroke-width: 0.5"/>
   </g>
   <g id="line2d_51">
    <path d="M -1 147.164982 
L 461.8 97.344333 
" clip-path="url(#p68a1d40a19)" style="fill: none; stroke-dasharray: 0.5,0.825; stroke-dashoffset: 0; stroke: #000000; stroke-width: 0.5"/>
   </g>
   <g id="line2d_52">
    <path d="M -1 80.875922 
L 461.8 31.055273 
" clip-path="url(#p68a1d40a19)" style="fill: none; stroke-dasharray: 0.5,0.825; stroke-dashoffset: 0; stroke: #000000; stroke-width: 0.5"/>
   </g>
   <g id="patch_3">
    <path d="M 22.78 315.44 
L 22.78 25.56 
" style="fill: none; stroke: #000000; stroke-width: 0.8; stroke-linejoin: miter; stroke-linecap: square"/>
   </g>
   <g id="patch_4">
    <path d="M 453.192 315.44 
L 453.192 25.56 
" style="fill: none; stroke: #000000; stroke-width: 0.8; stroke-linejoin: miter; stroke-linecap: square"/>
   </g>
   <g id="patch_5">
    <path d="M 22.78 315.44 
L 453.192 315.44 
" style="fill: none; stroke: #000000; stroke-width: 0.8; stroke-linejoin: miter; stroke-linecap: square"/>
   </g>
   <g id="patch_6">
    <path d="M 22.78 25.56 
L 453.192 25.56 
" style="fill: none; stroke: #000000; stroke-width: 0.8; stroke-linejoin: miter; stroke-linecap: square"/>
   </g>
   <g id="text_11">
    <!-- 15 instances -->
    <g transform="translate(22.78 296.8515) scale(0.14 -0.14)">
     <defs>
      <path id="DejaVuSans-20" transform="scale(0.015625)"/>
      <path id="DejaVuSans-69" d="M 603 3500 
L 1178 3500 
L 1178 0 
L 603 0 
L 603 3500 
z
M 603 4863 
L 1178 4863 
L 1178 4134 
L 603 4134 
L 603 4863 
z
" transform="scale(0.015625)"/>
      <path id="DejaVuSans-6e" d="M 3513 2113 
L 3513 0 
L 2938 0 
L 2938 2094 
Q 2938 2591 2744 2837 
Q 2550 3084 2163 3084 
Q 1697 3084 1428 2787 
Q 1159 2491 1159 1978 
L 1159 0 
L 581 0 
L 581 3500 
L 1159 3500 
L 1159 2956 
Q 1366 3272 1645 3428 
Q 1925 3584 2291 3584 
Q 2894 3584 3203 3211 
Q 3513 2838 3513 2113 
z
" transform="scale(0.015625)"/>
      <path id="DejaVuSans-73" d="M 2834 3397 
L 2834 2853 
Q 2591 2978 2328 3040 
Q 2066 3103 1784 3103 
Q 1356 3103 1142 2972 
Q 928 2841 928 2578 
Q 928 2378 1081 2264 
Q 1234 2150 1697 2047 
L 1894 2003 
Q 2506 1872 2764 1633 
Q 3022 1394 3022 966 
Q 3022 478 2636 193 
Q 2250 -91 1575 -91 
Q 1294 -91 989 -36 
Q 684 19 347 128 
L 347 722 
Q 666 556 975 473 
Q 1284 391 1588 391 
Q 1994 391 2212 530 
Q 2431 669 2431 922 
Q 2431 1156 2273 1281 
Q 2116 1406 1581 1522 
L 1381 1569 
Q 847 1681 609 1914 
Q 372 2147 372 2553 
Q 372 3047 722 3315 
Q 1072 3584 1716 3584 
Q 2034 3584 2315 3537 
Q 2597 3491 2834 3397 
z
" transform="scale(0.015625)"/>
      <path id="DejaVuSans-74" d="M 1172 4494 
L 1172 3500 
L 2356 3500 
L 2356 3053 
L 1172 3053 
L 1172 1153 
Q 1172 725 1289 603 
Q 1406 481 1766 481 
L 2356 481 
L 2356 0 
L 1766 0 
Q 1100 0 847 248 
Q 594 497 594 1153 
L 594 3053 
L 172 3053 
L 172 3500 
L 594 3500 
L 594 4494 
L 1172 4494 
z
" transform="scale(0.015625)"/>
      <path id="DejaVuSans-61" d="M 2194 1759 
Q 1497 1759 1228 1600 
Q 959 1441 959 1056 
Q 959 750 1161 570 
Q 1363 391 1709 391 
Q 2188 391 2477 730 
Q 2766 1069 2766 1631 
L 2766 1759 
L 2194 1759 
z
M 3341 1997 
L 3341 0 
L 2766 0 
L 2766 531 
Q 2569 213 2275 61 
Q 1981 -91 1556 -91 
Q 1019 -91 701 211 
Q 384 513 384 1019 
Q 384 1609 779 1909 
Q 1175 2209 1959 2209 
L 2766 2209 
L 2766 2266 
Q 2766 2663 2505 2880 
Q 2244 3097 1772 3097 
Q 1472 3097 1187 3025 
Q 903 2953 641 2809 
L 641 3341 
Q 956 3463 1253 3523 
Q 1550 3584 1831 3584 
Q 2591 3584 2966 3190 
Q 3341 2797 3341 1997 
z
" transform="scale(0.015625)"/>
      <path id="DejaVuSans-63" d="M 3122 3366 
L 3122 2828 
Q 2878 2963 2633 3030 
Q 2388 3097 2138 3097 
Q 1578 3097 1268 2742 
Q 959 2388 959 1747 
Q 959 1106 1268 751 
Q 1578 397 2138 397 
Q 2388 397 2633 464 
Q 2878 531 3122 666 
L 3122 134 
Q 2881 22 2623 -34 
Q 2366 -91 2075 -91 
Q 1284 -91 818 406 
Q 353 903 353 1747 
Q 353 2603 823 3093 
Q 1294 3584 2113 3584 
Q 2378 3584 2631 3529 
Q 2884 3475 3122 3366 
z
" transform="scale(0.015625)"/>
      <path id="DejaVuSans-65" d="M 3597 1894 
L 3597 1613 
L 953 1613 
Q 991 1019 1311 708 
Q 1631 397 2203 397 
Q 2534 397 2845 478 
Q 3156 559 3463 722 
L 3463 178 
Q 3153 47 2828 -22 
Q 2503 -91 2169 -91 
Q 1331 -91 842 396 
Q 353 884 353 1716 
Q 353 2575 817 3079 
Q 1281 3584 2069 3584 
Q 2775 3584 3186 3129 
Q 3597 2675 3597 1894 
z
M 3022 2063 
Q 3016 2534 2758 2815 
Q 2500 3097 2075 3097 
Q 1594 3097 1305 2825 
Q 1016 2553 972 2059 
L 3022 2063 
z
" transform="scale(0.015625)"/>
     </defs>
     <use xlink:href="#DejaVuSans-31"/>
     <use xlink:href="#DejaVuSans-35" x="63.623047"/>
     <use xlink:href="#DejaVuSans-20" x="127.246094"/>
     <use xlink:href="#DejaVuSans-69" x="159.033203"/>
     <use xlink:href="#DejaVuSans-6e" x="186.816406"/>
     <use xlink:href="#DejaVuSans-73" x="250.195312"/>
     <use xlink:href="#DejaVuSans-74" x="302.294922"/>
     <use xlink:href="#DejaVuSans-61" x="341.503906"/>
     <use xlink:href="#DejaVuSans-6e" x="402.783203"/>
     <use xlink:href="#DejaVuSans-63" x="466.162109"/>
     <use xlink:href="#DejaVuSans-65" x="521.142578"/>
     <use xlink:href="#DejaVuSans-73" x="582.666016"/>
    </g>
    <!-- target Df: 1e-8 -->
    <g transform="translate(22.78 312.528437) scale(0.14 -0.14)">
     <defs>
      <path id="DejaVuSans-72" d="M 2631 2963 
Q 2534 3019 2420 3045 
Q 2306 3072 2169 3072 
Q 1681 3072 1420 2755 
Q 1159 2438 1159 1844 
L 1159 0 
L 581 0 
L 581 3500 
L 1159 3500 
L 1159 2956 
Q 1341 3275 1631 3429 
Q 1922 3584 2338 3584 
Q 2397 3584 2469 3576 
Q 2541 3569 2628 3553 
L 2631 2963 
z
" transform="scale(0.015625)"/>
      <path id="DejaVuSans-67" d="M 2906 1791 
Q 2906 2416 2648 2759 
Q 2391 3103 1925 3103 
Q 1463 3103 1205 2759 
Q 947 2416 947 1791 
Q 947 1169 1205 825 
Q 1463 481 1925 481 
Q 2391 481 2648 825 
Q 2906 1169 2906 1791 
z
M 3481 434 
Q 3481 -459 3084 -895 
Q 2688 -1331 1869 -1331 
Q 1566 -1331 1297 -1286 
Q 1028 -1241 775 -1147 
L 775 -588 
Q 1028 -725 1275 -790 
Q 1522 -856 1778 -856 
Q 2344 -856 2625 -561 
Q 2906 -266 2906 331 
L 2906 616 
Q 2728 306 2450 153 
Q 2172 0 1784 0 
Q 1141 0 747 490 
Q 353 981 353 1791 
Q 353 2603 747 3093 
Q 1141 3584 1784 3584 
Q 2172 3584 2450 3431 
Q 2728 3278 2906 2969 
L 2906 3500 
L 3481 3500 
L 3481 434 
z
" transform="scale(0.015625)"/>
      <path id="DejaVuSans-44" d="M 1259 4147 
L 1259 519 
L 2022 519 
Q 2988 519 3436 956 
Q 3884 1394 3884 2338 
Q 3884 3275 3436 3711 
Q 2988 4147 2022 4147 
L 1259 4147 
z
M 628 4666 
L 1925 4666 
Q 3281 4666 3915 4102 
Q 4550 3538 4550 2338 
Q 4550 1131 3912 565 
Q 3275 0 1925 0 
L 628 0 
L 628 4666 
z
" transform="scale(0.015625)"/>
      <path id="DejaVuSans-66" d="M 2375 4863 
L 2375 4384 
L 1825 4384 
Q 1516 4384 1395 4259 
Q 1275 4134 1275 3809 
L 1275 3500 
L 2222 3500 
L 2222 3053 
L 1275 3053 
L 1275 0 
L 697 0 
L 697 3053 
L 147 3053 
L 147 3500 
L 697 3500 
L 697 3744 
Q 697 4328 969 4595 
Q 1241 4863 1831 4863 
L 2375 4863 
z
" transform="scale(0.015625)"/>
      <path id="DejaVuSans-3a" d="M 750 794 
L 1409 794 
L 1409 0 
L 750 0 
L 750 794 
z
M 750 3309 
L 1409 3309 
L 1409 2516 
L 750 2516 
L 750 3309 
z
" transform="scale(0.015625)"/>
      <path id="DejaVuSans-2d" d="M 313 2009 
L 1997 2009 
L 1997 1497 
L 313 1497 
L 313 2009 
z
" transform="scale(0.015625)"/>
      <path id="DejaVuSans-38" d="M 2034 2216 
Q 1584 2216 1326 1975 
Q 1069 1734 1069 1313 
Q 1069 891 1326 650 
Q 1584 409 2034 409 
Q 2484 409 2743 651 
Q 3003 894 3003 1313 
Q 3003 1734 2745 1975 
Q 2488 2216 2034 2216 
z
M 1403 2484 
Q 997 2584 770 2862 
Q 544 3141 544 3541 
Q 544 4100 942 4425 
Q 1341 4750 2034 4750 
Q 2731 4750 3128 4425 
Q 3525 4100 3525 3541 
Q 3525 3141 3298 2862 
Q 3072 2584 2669 2484 
Q 3125 2378 3379 2068 
Q 3634 1759 3634 1313 
Q 3634 634 3220 271 
Q 2806 -91 2034 -91 
Q 1263 -91 848 271 
Q 434 634 434 1313 
Q 434 1759 690 2068 
Q 947 2378 1403 2484 
z
M 1172 3481 
Q 1172 3119 1398 2916 
Q 1625 2713 2034 2713 
Q 2441 2713 2670 2916 
Q 2900 3119 2900 3481 
Q 2900 3844 2670 4047 
Q 2441 4250 2034 4250 
Q 1625 4250 1398 4047 
Q 1172 3844 1172 3481 
z
" transform="scale(0.015625)"/>
     </defs>
     <use xlink:href="#DejaVuSans-74"/>
     <use xlink:href="#DejaVuSans-61" x="39.208984"/>
     <use xlink:href="#DejaVuSans-72" x="100.488281"/>
     <use xlink:href="#DejaVuSans-67" x="139.851562"/>
     <use xlink:href="#DejaVuSans-65" x="203.328125"/>
     <use xlink:href="#DejaVuSans-74" x="264.851562"/>
     <use xlink:href="#DejaVuSans-20" x="304.060547"/>
     <use xlink:href="#DejaVuSans-44" x="335.847656"/>
     <use xlink:href="#DejaVuSans-66" x="412.849609"/>
     <use xlink:href="#DejaVuSans-3a" x="444.429688"/>
     <use xlink:href="#DejaVuSans-20" x="478.121094"/>
     <use xlink:href="#DejaVuSans-31" x="509.908203"/>
     <use xlink:href="#DejaVuSans-65" x="573.53125"/>
     <use xlink:href="#DejaVuSans-2d" x="635.054688"/>
     <use xlink:href="#DejaVuSans-38" x="671.138672"/>
    </g>
   </g>
   <g id="text_12">
    <!-- v2.6 -->
    <g style="fill: #808080" transform="translate(227.075063 310.461512) scale(0.1 -0.1)">
     <defs>
      <path id="DejaVuSans-76" d="M 191 3500 
L 800 3500 
L 1894 563 
L 2988 3500 
L 3597 3500 
L 2284 0 
L 1503 0 
L 191 3500 
z
" transform="scale(0.015625)"/>
      <path id="DejaVuSans-2e" d="M 684 794 
L 1344 794 
L 1344 0 
L 684 0 
L 684 794 
z
" transform="scale(0.015625)"/>
      <path id="DejaVuSans-36" d="M 2113 2584 
Q 1688 2584 1439 2293 
Q 1191 2003 1191 1497 
Q 1191 994 1439 701 
Q 1688 409 2113 409 
Q 2538 409 2786 701 
Q 3034 994 3034 1497 
Q 3034 2003 2786 2293 
Q 2538 2584 2113 2584 
z
M 3366 4563 
L 3366 3988 
Q 3128 4100 2886 4159 
Q 2644 4219 2406 4219 
Q 1781 4219 1451 3797 
Q 1122 3375 1075 2522 
Q 1259 2794 1537 2939 
Q 1816 3084 2150 3084 
Q 2853 3084 3261 2657 
Q 3669 2231 3669 1497 
Q 3669 778 3244 343 
Q 2819 -91 2113 -91 
Q 1303 -91 875 529 
Q 447 1150 447 2328 
Q 447 3434 972 4092 
Q 1497 4750 2381 4750 
Q 2619 4750 2861 4703 
Q 3103 4656 3366 4563 
z
" transform="scale(0.015625)"/>
     </defs>
     <use xlink:href="#DejaVuSans-76"/>
     <use xlink:href="#DejaVuSans-32" x="59.179688"/>
     <use xlink:href="#DejaVuSans-2e" x="122.802734"/>
     <use xlink:href="#DejaVuSans-36" x="154.589844"/>
    </g>
   </g>
   <g id="text_13">
    <!-- 1 Sphere -->
    <g transform="translate(189.637438 19.56) scale(0.216 -0.216)">
     <defs>
      <path id="DejaVuSans-53" d="M 3425 4513 
L 3425 3897 
Q 3066 4069 2747 4153 
Q 2428 4238 2131 4238 
Q 1616 4238 1336 4038 
Q 1056 3838 1056 3469 
Q 1056 3159 1242 3001 
Q 1428 2844 1947 2747 
L 2328 2669 
Q 3034 2534 3370 2195 
Q 3706 1856 3706 1288 
Q 3706 609 3251 259 
Q 2797 -91 1919 -91 
Q 1588 -91 1214 -16 
Q 841 59 441 206 
L 441 856 
Q 825 641 1194 531 
Q 1563 422 1919 422 
Q 2459 422 2753 634 
Q 3047 847 3047 1241 
Q 3047 1584 2836 1778 
Q 2625 1972 2144 2069 
L 1759 2144 
Q 1053 2284 737 2584 
Q 422 2884 422 3419 
Q 422 4038 858 4394 
Q 1294 4750 2059 4750 
Q 2388 4750 2728 4690 
Q 3069 4631 3425 4513 
z
" transform="scale(0.015625)"/>
      <path id="DejaVuSans-70" d="M 1159 525 
L 1159 -1331 
L 581 -1331 
L 581 3500 
L 1159 3500 
L 1159 2969 
Q 1341 3281 1617 3432 
Q 1894 3584 2278 3584 
Q 2916 3584 3314 3078 
Q 3713 2572 3713 1747 
Q 3713 922 3314 415 
Q 2916 -91 2278 -91 
Q 1894 -91 1617 61 
Q 1341 213 1159 525 
z
M 3116 1747 
Q 3116 2381 2855 2742 
Q 2594 3103 2138 3103 
Q 1681 3103 1420 2742 
Q 1159 2381 1159 1747 
Q 1159 1113 1420 752 
Q 1681 391 2138 391 
Q 2594 391 2855 752 
Q 3116 1113 3116 1747 
z
" transform="scale(0.015625)"/>
      <path id="DejaVuSans-68" d="M 3513 2113 
L 3513 0 
L 2938 0 
L 2938 2094 
Q 2938 2591 2744 2837 
Q 2550 3084 2163 3084 
Q 1697 3084 1428 2787 
Q 1159 2491 1159 1978 
L 1159 0 
L 581 0 
L 581 4863 
L 1159 4863 
L 1159 2956 
Q 1366 3272 1645 3428 
Q 1925 3584 2291 3584 
Q 2894 3584 3203 3211 
Q 3513 2838 3513 2113 
z
" transform="scale(0.015625)"/>
     </defs>
     <use xlink:href="#DejaVuSans-31"/>
     <use xlink:href="#DejaVuSans-20" x="63.623047"/>
     <use xlink:href="#DejaVuSans-53" x="95.410156"/>
     <use xlink:href="#DejaVuSans-70" x="158.886719"/>
     <use xlink:href="#DejaVuSans-68" x="222.363281"/>
     <use xlink:href="#DejaVuSans-65" x="285.742188"/>
     <use xlink:href="#DejaVuSans-72" x="347.265625"/>
     <use xlink:href="#DejaVuSans-65" x="386.128906"/>
    </g>
   </g>
   <g id="legend_1">
    <g id="patch_7">
     <path d="M 140.942364 127.113311 
L 335.029636 127.113311 
Q 338.074142 127.113311 338.074142 124.068805 
L 338.074142 36.215772 
Q 338.074142 33.171266 335.029636 33.171266 
L 140.942364 33.171266 
Q 137.897858 33.171266 137.897858 36.215772 
L 137.897858 124.068805 
Q 137.897858 127.113311 140.942364 127.113311 
z
" style="fill: #ffffff; opacity: 0.2; stroke: #cccccc; stroke-linejoin: miter"/>
    </g>
    <g id="line2d_53">
     <path d="M 143.98687 45.499137 
L 159.209401 45.499137 
L 174.431932 45.499137 
" style="fill: none; stroke: #000080; stroke-width: 4; stroke-linecap: square"/>
     <defs>
      <path id="m9a0d2420c5" d="M 0 6 
C 1.591219 6 3.117479 5.367802 4.242641 4.242641 
C 5.367802 3.117479 6 1.591219 6 0 
C 6 -1.591219 5.367802 -3.117479 4.242641 -4.242641 
C 3.117479 -5.367802 1.591219 -6 0 -6 
C -1.591219 -6 -3.117479 -5.367802 -4.242641 -4.242641 
C -5.367802 -3.117479 -6 -1.591219 -6 0 
C -6 1.591219 -5.367802 3.117479 -4.242641 4.242641 
C -3.117479 5.367802 -1.591219 6 0 6 
z
" style="stroke: #000080; stroke-width: 3"/>
     </defs>
     <g>
      <use xlink:href="#m9a0d2420c5" x="159.209401" y="45.499137" style="fill-opacity: 0; stroke: #000080; stroke-width: 3"/>
     </g>
    </g>
    <g id="text_14">
     <!-- fmin2 of cma.e -->
     <g transform="translate(186.609957 50.827023) scale(0.152225 -0.152225)">
      <defs>
       <path id="DejaVuSans-6d" d="M 3328 2828 
Q 3544 3216 3844 3400 
Q 4144 3584 4550 3584 
Q 5097 3584 5394 3201 
Q 5691 2819 5691 2113 
L 5691 0 
L 5113 0 
L 5113 2094 
Q 5113 2597 4934 2840 
Q 4756 3084 4391 3084 
Q 3944 3084 3684 2787 
Q 3425 2491 3425 1978 
L 3425 0 
L 2847 0 
L 2847 2094 
Q 2847 2600 2669 2842 
Q 2491 3084 2119 3084 
Q 1678 3084 1418 2786 
Q 1159 2488 1159 1978 
L 1159 0 
L 581 0 
L 581 3500 
L 1159 3500 
L 1159 2956 
Q 1356 3278 1631 3431 
Q 1906 3584 2284 3584 
Q 2666 3584 2933 3390 
Q 3200 3197 3328 2828 
z
" transform="scale(0.015625)"/>
       <path id="DejaVuSans-6f" d="M 1959 3097 
Q 1497 3097 1228 2736 
Q 959 2375 959 1747 
Q 959 1119 1226 758 
Q 1494 397 1959 397 
Q 2419 397 2687 759 
Q 2956 1122 2956 1747 
Q 2956 2369 2687 2733 
Q 2419 3097 1959 3097 
z
M 1959 3584 
Q 2709 3584 3137 3096 
Q 3566 2609 3566 1747 
Q 3566 888 3137 398 
Q 2709 -91 1959 -91 
Q 1206 -91 779 398 
Q 353 888 353 1747 
Q 353 2609 779 3096 
Q 1206 3584 1959 3584 
z
" transform="scale(0.015625)"/>
      </defs>
      <use xlink:href="#DejaVuSans-66"/>
      <use xlink:href="#DejaVuSans-6d" x="35.205078"/>
      <use xlink:href="#DejaVuSans-69" x="132.617188"/>
      <use xlink:href="#DejaVuSans-6e" x="160.400391"/>
      <use xlink:href="#DejaVuSans-32" x="223.779297"/>
      <use xlink:href="#DejaVuSans-20" x="287.402344"/>
      <use xlink:href="#DejaVuSans-6f" x="319.189453"/>
      <use xlink:href="#DejaVuSans-66" x="380.371094"/>
      <use xlink:href="#DejaVuSans-20" x="415.576172"/>
      <use xlink:href="#DejaVuSans-63" x="447.363281"/>
      <use xlink:href="#DejaVuSans-6d" x="502.34375"/>
      <use xlink:href="#DejaVuSans-61" x="599.755859"/>
      <use xlink:href="#DejaVuSans-2e" x="661.035156"/>
      <use xlink:href="#DejaVuSans-65" x="692.822266"/>
     </g>
    </g>
    <g id="line2d_54">
     <path d="M 143.98687 67.842959 
L 159.209401 67.842959 
L 174.431932 67.842959 
" style="fill: none; stroke: #ff00ff; stroke-width: 3.666667; stroke-linecap: square"/>
     <defs>
      <path id="m5d0ed81781" d="M 0 8.485281 
L 5.091169 0 
L 0 -8.485281 
L -5.091169 0 
z
" style="stroke: #ff00ff; stroke-width: 2.5; stroke-linejoin: miter"/>
     </defs>
     <g>
      <use xlink:href="#m5d0ed81781" x="159.209401" y="67.842959" style="fill-opacity: 0; stroke: #ff00ff; stroke-width: 2.5; stroke-linejoin: miter"/>
     </g>
    </g>
    <g id="text_15">
     <!-- RANDOMSEARCH-5 -->
     <g transform="translate(186.609957 73.170845) scale(0.152225 -0.152225)">
      <defs>
       <path id="DejaVuSans-52" d="M 2841 2188 
Q 3044 2119 3236 1894 
Q 3428 1669 3622 1275 
L 4263 0 
L 3584 0 
L 2988 1197 
Q 2756 1666 2539 1819 
Q 2322 1972 1947 1972 
L 1259 1972 
L 1259 0 
L 628 0 
L 628 4666 
L 2053 4666 
Q 2853 4666 3247 4331 
Q 3641 3997 3641 3322 
Q 3641 2881 3436 2590 
Q 3231 2300 2841 2188 
z
M 1259 4147 
L 1259 2491 
L 2053 2491 
Q 2509 2491 2742 2702 
Q 2975 2913 2975 3322 
Q 2975 3731 2742 3939 
Q 2509 4147 2053 4147 
L 1259 4147 
z
" transform="scale(0.015625)"/>
       <path id="DejaVuSans-41" d="M 2188 4044 
L 1331 1722 
L 3047 1722 
L 2188 4044 
z
M 1831 4666 
L 2547 4666 
L 4325 0 
L 3669 0 
L 3244 1197 
L 1141 1197 
L 716 0 
L 50 0 
L 1831 4666 
z
" transform="scale(0.015625)"/>
       <path id="DejaVuSans-4e" d="M 628 4666 
L 1478 4666 
L 3547 763 
L 3547 4666 
L 4159 4666 
L 4159 0 
L 3309 0 
L 1241 3903 
L 1241 0 
L 628 0 
L 628 4666 
z
" transform="scale(0.015625)"/>
       <path id="DejaVuSans-4f" d="M 2522 4238 
Q 1834 4238 1429 3725 
Q 1025 3213 1025 2328 
Q 1025 1447 1429 934 
Q 1834 422 2522 422 
Q 3209 422 3611 934 
Q 4013 1447 4013 2328 
Q 4013 3213 3611 3725 
Q 3209 4238 2522 4238 
z
M 2522 4750 
Q 3503 4750 4090 4092 
Q 4678 3434 4678 2328 
Q 4678 1225 4090 567 
Q 3503 -91 2522 -91 
Q 1538 -91 948 565 
Q 359 1222 359 2328 
Q 359 3434 948 4092 
Q 1538 4750 2522 4750 
z
" transform="scale(0.015625)"/>
       <path id="DejaVuSans-4d" d="M 628 4666 
L 1569 4666 
L 2759 1491 
L 3956 4666 
L 4897 4666 
L 4897 0 
L 4281 0 
L 4281 4097 
L 3078 897 
L 2444 897 
L 1241 4097 
L 1241 0 
L 628 0 
L 628 4666 
z
" transform="scale(0.015625)"/>
       <path id="DejaVuSans-45" d="M 628 4666 
L 3578 4666 
L 3578 4134 
L 1259 4134 
L 1259 2753 
L 3481 2753 
L 3481 2222 
L 1259 2222 
L 1259 531 
L 3634 531 
L 3634 0 
L 628 0 
L 628 4666 
z
" transform="scale(0.015625)"/>
       <path id="DejaVuSans-43" d="M 4122 4306 
L 4122 3641 
Q 3803 3938 3442 4084 
Q 3081 4231 2675 4231 
Q 1875 4231 1450 3742 
Q 1025 3253 1025 2328 
Q 1025 1406 1450 917 
Q 1875 428 2675 428 
Q 3081 428 3442 575 
Q 3803 722 4122 1019 
L 4122 359 
Q 3791 134 3420 21 
Q 3050 -91 2638 -91 
Q 1578 -91 968 557 
Q 359 1206 359 2328 
Q 359 3453 968 4101 
Q 1578 4750 2638 4750 
Q 3056 4750 3426 4639 
Q 3797 4528 4122 4306 
z
" transform="scale(0.015625)"/>
       <path id="DejaVuSans-48" d="M 628 4666 
L 1259 4666 
L 1259 2753 
L 3553 2753 
L 3553 4666 
L 4184 4666 
L 4184 0 
L 3553 0 
L 3553 2222 
L 1259 2222 
L 1259 0 
L 628 0 
L 628 4666 
z
" transform="scale(0.015625)"/>
      </defs>
      <use xlink:href="#DejaVuSans-52"/>
      <use xlink:href="#DejaVuSans-41" x="65.482422"/>
      <use xlink:href="#DejaVuSans-4e" x="133.890625"/>
      <use xlink:href="#DejaVuSans-44" x="208.695312"/>
      <use xlink:href="#DejaVuSans-4f" x="285.697266"/>
      <use xlink:href="#DejaVuSans-4d" x="364.408203"/>
      <use xlink:href="#DejaVuSans-53" x="450.6875"/>
      <use xlink:href="#DejaVuSans-45" x="514.164062"/>
      <use xlink:href="#DejaVuSans-41" x="577.347656"/>
      <use xlink:href="#DejaVuSans-52" x="645.755859"/>
      <use xlink:href="#DejaVuSans-43" x="710.238281"/>
      <use xlink:href="#DejaVuSans-48" x="780.0625"/>
      <use xlink:href="#DejaVuSans-2d" x="855.257812"/>
      <use xlink:href="#DejaVuSans-35" x="891.341797"/>
     </g>
    </g>
    <g id="line2d_55">
     <path d="M 143.98687 90.18678 
L 159.209401 90.18678 
L 174.431932 90.18678 
" style="fill: none; stroke: #ff7500; stroke-width: 3.333333; stroke-linecap: square"/>
     <defs>
      <path id="m36b4ef57ab" d="M 0 -6 
L -1.347084 -1.854102 
L -5.706339 -1.854102 
L -2.179628 0.708204 
L -3.526712 4.854102 
L -0 2.291796 
L 3.526712 4.854102 
L 2.179628 0.708204 
L 5.706339 -1.854102 
L 1.347084 -1.854102 
z
" style="stroke: #ff7500; stroke-width: 2; stroke-linejoin: bevel"/>
     </defs>
     <g>
      <use xlink:href="#m36b4ef57ab" x="159.209401" y="90.18678" style="fill-opacity: 0; stroke: #ff7500; stroke-width: 2; stroke-linejoin: bevel"/>
     </g>
    </g>
    <g id="text_16">
     <!-- BFGS-scipy-201 -->
     <g transform="translate(186.609957 95.514666) scale(0.152225 -0.152225)">
      <defs>
       <path id="DejaVuSans-42" d="M 1259 2228 
L 1259 519 
L 2272 519 
Q 2781 519 3026 730 
Q 3272 941 3272 1375 
Q 3272 1813 3026 2020 
Q 2781 2228 2272 2228 
L 1259 2228 
z
M 1259 4147 
L 1259 2741 
L 2194 2741 
Q 2656 2741 2882 2914 
Q 3109 3088 3109 3444 
Q 3109 3797 2882 3972 
Q 2656 4147 2194 4147 
L 1259 4147 
z
M 628 4666 
L 2241 4666 
Q 2963 4666 3353 4366 
Q 3744 4066 3744 3513 
Q 3744 3084 3544 2831 
Q 3344 2578 2956 2516 
Q 3422 2416 3680 2098 
Q 3938 1781 3938 1306 
Q 3938 681 3513 340 
Q 3088 0 2303 0 
L 628 0 
L 628 4666 
z
" transform="scale(0.015625)"/>
       <path id="DejaVuSans-46" d="M 628 4666 
L 3309 4666 
L 3309 4134 
L 1259 4134 
L 1259 2759 
L 3109 2759 
L 3109 2228 
L 1259 2228 
L 1259 0 
L 628 0 
L 628 4666 
z
" transform="scale(0.015625)"/>
       <path id="DejaVuSans-47" d="M 3809 666 
L 3809 1919 
L 2778 1919 
L 2778 2438 
L 4434 2438 
L 4434 434 
Q 4069 175 3628 42 
Q 3188 -91 2688 -91 
Q 1594 -91 976 548 
Q 359 1188 359 2328 
Q 359 3472 976 4111 
Q 1594 4750 2688 4750 
Q 3144 4750 3555 4637 
Q 3966 4525 4313 4306 
L 4313 3634 
Q 3963 3931 3569 4081 
Q 3175 4231 2741 4231 
Q 1884 4231 1454 3753 
Q 1025 3275 1025 2328 
Q 1025 1384 1454 906 
Q 1884 428 2741 428 
Q 3075 428 3337 486 
Q 3600 544 3809 666 
z
" transform="scale(0.015625)"/>
       <path id="DejaVuSans-79" d="M 2059 -325 
Q 1816 -950 1584 -1140 
Q 1353 -1331 966 -1331 
L 506 -1331 
L 506 -850 
L 844 -850 
Q 1081 -850 1212 -737 
Q 1344 -625 1503 -206 
L 1606 56 
L 191 3500 
L 800 3500 
L 1894 763 
L 2988 3500 
L 3597 3500 
L 2059 -325 
z
" transform="scale(0.015625)"/>
      </defs>
      <use xlink:href="#DejaVuSans-42"/>
      <use xlink:href="#DejaVuSans-46" x="68.603516"/>
      <use xlink:href="#DejaVuSans-47" x="126.123047"/>
      <use xlink:href="#DejaVuSans-53" x="203.613281"/>
      <use xlink:href="#DejaVuSans-2d" x="267.089844"/>
      <use xlink:href="#DejaVuSans-73" x="303.173828"/>
      <use xlink:href="#DejaVuSans-63" x="355.273438"/>
      <use xlink:href="#DejaVuSans-69" x="410.253906"/>
      <use xlink:href="#DejaVuSans-70" x="438.037109"/>
      <use xlink:href="#DejaVuSans-79" x="501.513672"/>
      <use xlink:href="#DejaVuSans-2d" x="558.943359"/>
      <use xlink:href="#DejaVuSans-32" x="595.027344"/>
      <use xlink:href="#DejaVuSans-30" x="658.650391"/>
      <use xlink:href="#DejaVuSans-31" x="722.273438"/>
     </g>
    </g>
    <g id="line2d_56">
     <path d="M 143.98687 112.530602 
L 159.209401 112.530602 
L 174.431932 112.530602 
" style="fill: none; stroke: #6495ed; stroke-width: 3; stroke-linecap: square"/>
     <defs>
      <path id="mf28344c08b" d="M -0 6 
L 6 -6 
L -6 -6 
z
" style="stroke: #6495ed; stroke-width: 1.5; stroke-linejoin: miter"/>
     </defs>
     <g>
      <use xlink:href="#mf28344c08b" x="159.209401" y="112.530602" style="fill-opacity: 0; stroke: #6495ed; stroke-width: 1.5; stroke-linejoin: miter"/>
     </g>
    </g>
    <g id="text_17">
     <!-- BIPOP-CMA-ES h -->
     <g transform="translate(186.609957 117.858488) scale(0.152225 -0.152225)">
      <defs>
       <path id="DejaVuSans-49" d="M 628 4666 
L 1259 4666 
L 1259 0 
L 628 0 
L 628 4666 
z
" transform="scale(0.015625)"/>
       <path id="DejaVuSans-50" d="M 1259 4147 
L 1259 2394 
L 2053 2394 
Q 2494 2394 2734 2622 
Q 2975 2850 2975 3272 
Q 2975 3691 2734 3919 
Q 2494 4147 2053 4147 
L 1259 4147 
z
M 628 4666 
L 2053 4666 
Q 2838 4666 3239 4311 
Q 3641 3956 3641 3272 
Q 3641 2581 3239 2228 
Q 2838 1875 2053 1875 
L 1259 1875 
L 1259 0 
L 628 0 
L 628 4666 
z
" transform="scale(0.015625)"/>
      </defs>
      <use xlink:href="#DejaVuSans-42"/>
      <use xlink:href="#DejaVuSans-49" x="68.603516"/>
      <use xlink:href="#DejaVuSans-50" x="98.095703"/>
      <use xlink:href="#DejaVuSans-4f" x="158.398438"/>
      <use xlink:href="#DejaVuSans-50" x="237.109375"/>
      <use xlink:href="#DejaVuSans-2d" x="295.162109"/>
      <use xlink:href="#DejaVuSans-43" x="331.246094"/>
      <use xlink:href="#DejaVuSans-4d" x="401.070312"/>
      <use xlink:href="#DejaVuSans-41" x="487.349609"/>
      <use xlink:href="#DejaVuSans-2d" x="553.507812"/>
      <use xlink:href="#DejaVuSans-45" x="589.591797"/>
      <use xlink:href="#DejaVuSans-53" x="652.775391"/>
      <use xlink:href="#DejaVuSans-20" x="716.251953"/>
      <use xlink:href="#DejaVuSans-68" x="748.039062"/>
     </g>
    </g>
   </g>
  </g>
 </g>
 <defs>
  <clipPath id="p68a1d40a19">
   <rect x="22.78" y="25.56" width="430.412" height="289.88"/>
  </clipPath>
 </defs>
</svg>
